<?xml version="1.0" standalone="no"?>
<!DOCTYPE svg PUBLIC "-//W3C//DTD SVG 20010904//EN"
 "http://www.w3.org/TR/2001/REC-SVG-20010904/DTD/svg10.dtd">
<svg version="1.0" xmlns="http://www.w3.org/2000/svg"
 width="320.000000pt" height="320.000000pt" viewBox="0 0 320.000000 320.000000"
 preserveAspectRatio="xMidYMid meet">

<g transform="translate(0.000000,320.000000) scale(0.100000,-0.100000)"
fill="#000000" stroke="none">
<path d="M1410 3190 c-85 -12 -221 -42 -216 -47 2 -3 48 -20 103 -39 126 -43
296 -128 406 -201 163 -109 263 -206 594 -573 117 -129 191 -197 261 -241 30
-20 32 -20 32 -2 0 10 -9 61 -20 113 -63 297 -208 581 -410 802 -118 129 -143
146 -256 169 -114 22 -391 33 -494 19z"/>
<path d="M876 3025 c-379 -191 -669 -532 -797 -936 -18 -55 -30 -101 -28 -103
2 -2 62 11 134 29 243 61 332 70 705 70 294 -1 355 -3 495 -23 405 -58 791
-163 1102 -300 130 -58 123 -63 123 85 0 97 -7 114 -53 129 -29 9 -99 57 -166
113 -30 25 -131 132 -224 236 -317 354 -445 464 -677 583 -152 79 -247 115
-370 143 -123 27 -143 25 -244 -26z"/>
<path d="M2256 3048 c6 -7 33 -40 59 -73 121 -150 234 -361 299 -555 35 -106
76 -289 76 -340 0 -36 9 -42 50 -30 79 23 161 110 231 244 l34 66 -30 56 c-74
137 -236 321 -388 442 -113 89 -365 235 -331 190z"/>
<path d="M3038 2208 c-26 -56 -108 -157 -155 -193 -42 -32 -98 -57 -153 -69
l-25 -5 0 -141 0 -140 77 -44 c115 -66 248 -160 322 -228 37 -33 69 -59 71
-56 3 2 10 51 16 109 20 176 0 410 -48 579 -25 88 -74 220 -82 220 -4 0 -14
-15 -23 -32z"/>
<path d="M517 1975 c-178 -22 -463 -87 -488 -112 -17 -17 -31 -200 -25 -333
10 -222 66 -442 159 -630 l42 -85 50 -3 c204 -13 727 113 1150 278 400 156
681 231 865 230 66 -1 199 -23 228 -39 20 -11 22 -7 41 56 23 80 51 216 51
248 0 19 -16 30 -107 70 -398 174 -828 284 -1278 325 -151 14 -556 11 -688 -5z"/>
<path d="M2685 1528 c-2 -13 -14 -67 -26 -121 -11 -54 -27 -117 -35 -139 l-14
-41 65 -68 c114 -118 170 -279 163 -473 -2 -53 -1 -96 2 -96 3 0 32 38 65 85
83 116 167 285 211 418 l36 112 -84 80 c-83 80 -211 173 -320 234 l-57 32 -6
-23z"/>
<path d="M2115 1205 c-140 -23 -324 -77 -530 -155 -531 -202 -922 -309 -1227
-336 -43 -4 -78 -10 -78 -14 0 -10 66 -95 139 -178 66 -76 209 -198 306 -261
93 -60 240 -132 347 -170 81 -28 92 -30 145 -20 426 77 829 353 1086 744 61
92 133 228 167 315 l19 48 -47 17 c-67 23 -219 27 -327 10z"/>
<path d="M2541 1042 c-99 -231 -291 -496 -483 -662 -163 -141 -401 -281 -585
-344 l-68 -23 80 -8 c363 -35 807 100 1097 334 141 114 128 96 144 201 35 239
-6 438 -113 542 l-39 38 -33 -78z"/>
</g>
</svg>
