<?xml version="1.0" standalone="no"?>
<!DOCTYPE svg PUBLIC "-//W3C//DTD SVG 20010904//EN"
 "http://www.w3.org/TR/2001/REC-SVG-20010904/DTD/svg10.dtd">
<svg version="1.0" xmlns="http://www.w3.org/2000/svg"
 width="320.000000pt" height="320.000000pt" viewBox="0 0 320.000000 320.000000"
 preserveAspectRatio="xMidYMid meet">

<g transform="translate(0.000000,320.000000) scale(0.100000,-0.100000)"
fill="#000000" stroke="none">
<path d="M1710 2780 c-8 -5 -31 -10 -51 -10 -31 0 -38 -5 -58 -41 -13 -23 -24
-59 -25 -80 0 -22 -5 -38 -11 -36 -5 3 -56 19 -113 38 -85 28 -106 31 -122 21
-11 -6 -34 -12 -50 -12 -69 0 -121 -22 -178 -75 l-56 -52 18 -28 c15 -23 18
-45 15 -129 -3 -114 -2 -140 4 -211 3 -27 7 -75 10 -105 2 -30 7 -62 11 -70 4
-10 -6 -29 -29 -53 -19 -20 -35 -42 -35 -48 0 -6 -20 -38 -45 -71 -25 -33 -45
-65 -45 -71 -1 -15 -46 -67 -59 -67 -5 0 -22 -16 -38 -36 -15 -20 -62 -72
-104 -117 -113 -121 -159 -184 -159 -217 0 -21 -17 -44 -75 -101 -63 -63 -75
-79 -75 -107 0 -18 -5 -42 -10 -53 -12 -22 -7 -24 22 -8 11 6 35 13 52 16 42
7 72 30 158 122 40 43 108 103 150 134 42 32 89 73 103 91 15 19 55 55 89 81
35 25 69 58 77 72 8 14 32 34 55 43 23 10 58 39 82 68 43 51 121 108 179 131
31 12 36 11 87 -23 30 -20 59 -36 64 -36 6 0 28 -15 51 -32 22 -18 55 -42 73
-53 25 -16 32 -27 30 -45 -1 -14 -6 -86 -11 -160 -5 -99 -13 -152 -30 -200
-16 -46 -21 -76 -17 -105 8 -53 -11 -83 -42 -66 -25 14 -50 15 -37 2 22 -21
198 -91 229 -91 17 0 41 7 52 15 18 14 17 14 -13 15 -23 0 -33 5 -33 15 0 8 8
15 18 15 18 0 42 18 42 31 0 3 -13 23 -30 44 -29 37 -39 81 -21 100 17 19 89
211 101 268 6 31 14 57 16 57 3 0 111 -76 242 -169 357 -254 342 -247 466
-215 139 36 195 80 166 133 -15 29 -29 27 -133 -20 -125 -56 -142 -58 -220
-22 -59 28 -395 248 -478 314 l-37 29 5 82 c4 69 1 91 -15 127 l-20 44 34 45
c44 57 50 83 29 115 -15 23 -15 28 -1 56 11 20 16 57 16 114 0 63 4 88 15 97
19 16 19 34 1 50 -8 6 -25 32 -36 56 -12 24 -25 44 -30 44 -12 0 -100 85 -100
97 0 7 6 18 13 25 20 20 37 54 37 75 0 22 -17 46 -79 114 -44 49 -63 57 -91
39z m-454 -426 c-11 -36 -32 -45 -43 -18 -9 25 13 63 35 57 16 -4 17 -8 8 -39z
m473 -1273 c17 -11 7 -41 -13 -41 -19 0 -29 17 -22 35 6 17 15 18 35 6z"/>
<path d="M2235 1040 c-49 -5 -50 -5 -50 -40 0 -33 2 -35 43 -42 24 -4 60 -4
80 0 34 7 37 11 37 42 0 30 -4 35 -30 40 -16 3 -52 3 -80 0z"/>
<path d="M290 870 c0 -27 5 -50 10 -50 6 0 10 -45 10 -115 0 -70 -4 -115 -10
-115 -5 0 -10 -22 -10 -50 l0 -50 80 0 80 0 0 50 c0 28 -4 50 -10 50 -5 0 -10
16 -10 35 0 34 1 35 40 35 39 0 40 -1 40 -35 0 -19 -4 -35 -10 -35 -5 0 -10
-22 -10 -50 l0 -50 80 0 80 0 0 50 c0 28 -4 50 -10 50 -6 0 -10 45 -10 115 0
70 4 115 10 115 6 0 10 23 10 50 l0 50 -80 0 -80 0 0 -50 c0 -27 5 -50 10 -50
6 0 10 -11 10 -25 0 -22 -4 -25 -40 -25 -36 0 -40 3 -40 25 0 14 5 25 10 25 6
0 10 23 10 50 l0 50 -80 0 -80 0 0 -50z"/>
<path d="M767 882 l-37 -38 0 -140 0 -140 38 -37 38 -37 90 0 90 0 37 38 37
38 0 139 -1 140 -34 38 -35 37 -93 0 -93 0 -37 -38z m171 -174 l-3 -113 -40 0
-40 0 -3 99 c-1 55 0 106 2 113 3 8 22 13 46 13 l41 0 -3 -112z"/>
<path d="M1172 887 l-32 -33 0 -145 0 -145 38 -37 38 -37 90 0 c89 0 91 0 122
33 28 28 32 40 32 85 l0 52 -54 0 c-54 0 -55 0 -58 -32 -3 -31 -5 -33 -43 -33
l-40 0 -3 113 -3 113 43 -3 c39 -3 43 -6 46 -30 3 -27 6 -28 58 -28 l54 0 0
48 c0 41 -5 53 -33 80 -32 31 -35 32 -128 32 -94 0 -95 0 -127 -33z"/>
<path d="M1540 875 c0 -31 5 -47 15 -51 23 -9 22 -234 -1 -234 -12 0 -14 -10
-12 -47 l3 -48 83 -3 82 -3 0 51 c0 27 -4 50 -10 50 -13 0 -13 27 0 35 24 15
40 -17 40 -77 l0 -59 98 3 97 3 3 48 c3 40 0 47 -15 47 -10 0 -45 27 -78 60
l-59 60 54 55 c29 30 63 55 74 57 17 2 22 11 24 51 l3 47 -100 0 -101 0 0 -53
c0 -44 -4 -58 -25 -77 l-25 -23 0 26 c0 15 5 27 10 27 6 0 10 23 10 50 l0 50
-85 0 -85 0 0 -45z"/>
<path d="M2010 870 c0 -33 4 -50 13 -50 9 0 11 -28 9 -115 -2 -63 -7 -115 -13
-115 -5 0 -9 -22 -9 -50 l0 -50 155 0 155 0 0 60 0 60 -44 0 c-25 0 -48 -4
-51 -10 -3 -5 -22 -10 -41 -10 -32 0 -34 2 -34 35 0 19 5 35 10 35 6 0 10 -4
10 -10 0 -5 20 -10 45 -10 l45 0 0 66 0 66 -55 -4 -55 -5 0 30 0 29 85 -7 85
-7 0 56 0 56 -155 0 -155 0 0 -50z"/>
<path d="M2402 873 c2 -39 7 -48 23 -51 11 -2 50 -34 88 -70 64 -64 67 -68 67
-114 0 -27 -4 -48 -10 -48 -5 0 -10 -22 -10 -50 l0 -50 80 0 80 0 0 50 c0 28
-4 50 -10 50 -5 0 -10 22 -10 48 0 47 3 51 68 115 37 37 75 67 85 67 14 0 17
9 17 50 l0 50 -101 0 -101 0 4 -55 c4 -44 1 -58 -14 -72 -17 -15 -19 -15 -38
2 -11 10 -20 23 -19 29 1 6 1 30 0 54 l-1 42 -101 0 -100 0 3 -47z"/>
</g>
</svg>
