<?xml version="1.0" standalone="no"?>
<!DOCTYPE svg PUBLIC "-//W3C//DTD SVG 20010904//EN"
 "http://www.w3.org/TR/2001/REC-SVG-20010904/DTD/svg10.dtd">
<svg version="1.0" xmlns="http://www.w3.org/2000/svg"
 width="900.000000pt" height="900.000000pt" viewBox="0 0 900.000000 900.000000"
 preserveAspectRatio="xMidYMid meet">

<g transform="translate(0.000000,900.000000) scale(0.100000,-0.100000)"
fill="#000000" stroke="none">
<path d="M4290 8379 c-963 -55 -1860 -458 -2545 -1144 -407 -407 -706 -868
-904 -1397 -418 -1116 -303 -2382 310 -3398 173 -287 358 -522 603 -765 280
-279 539 -470 939 -694 l57 -33 40 85 c21 47 69 167 105 268 158 435 201 597
226 844 16 159 6 603 -16 695 -24 103 -42 199 -54 281 -12 92 -43 178 -78 219
-31 37 -73 39 -200 9 -118 -28 -208 -23 -328 21 -82 29 -105 33 -255 40 -174
8 -240 22 -301 63 -78 52 -108 137 -116 322 -7 158 4 262 62 580 73 403 80
568 30 664 -31 58 -32 120 -4 195 22 56 75 116 104 116 8 0 20 8 27 18 18 26
51 42 86 42 24 0 30 5 35 29 3 16 13 36 22 45 23 22 74 20 100 -4 l21 -20 21
22 c11 13 30 55 41 93 12 39 28 80 37 93 22 31 53 28 67 -5 7 -16 13 -30 15
-32 1 -2 50 38 108 88 59 50 115 91 125 91 23 0 169 156 243 259 113 157 190
320 252 530 101 346 195 520 383 709 205 207 429 315 647 315 440 -1 680 -410
495 -844 -32 -75 -107 -198 -147 -241 -24 -25 -24 -56 -1 -42 7 4 8 2 4 -5 -6
-9 -11 -9 -22 0 -13 10 -18 6 -15 -14 0 -4 -3 -6 -7 -5 -12 4 -122 -93 -119
-105 1 -7 -4 -11 -12 -9 -18 4 -52 -28 -44 -41 3 -5 1 -7 -4 -4 -17 10 -149
-83 -145 -102 2 -12 1 -13 -6 -3 -7 11 -22 7 -72 -18 -101 -51 -252 -96 -471
-140 -112 -22 -240 -49 -285 -60 -101 -25 -283 -92 -349 -130 -77 -44 -185
-138 -200 -174 -7 -17 -23 -40 -34 -50 -11 -10 -18 -23 -14 -29 3 -5 2 -7 -4
-4 -5 3 -34 -20 -65 -51 -48 -50 -58 -68 -48 -87 1 -3 3 -9 4 -15 0 -5 4 -10
9 -10 4 0 11 0 17 0 13 0 31 36 33 67 1 15 9 29 17 31 13 5 13 3 1 -11 -12
-15 -11 -17 11 -17 28 0 48 17 48 42 0 10 3 17 8 16 4 -2 7 2 7 7 0 6 -6 8
-15 6 -12 -2 -12 1 3 16 9 11 14 23 10 28 -5 4 -3 5 4 1 7 -4 10 -13 7 -20 -3
-8 0 -17 6 -21 15 -10 56 32 64 65 3 14 3 19 0 13 -3 -7 -10 -13 -16 -13 -6 0
-5 6 2 15 9 11 16 12 26 4 9 -8 15 -5 24 11 6 12 9 28 6 36 -5 12 -1 14 15 9
16 -5 19 -4 14 6 -6 9 -4 11 8 6 12 -4 14 -2 10 10 -4 11 -2 14 5 9 6 -4 21 3
32 14 17 17 19 24 9 43 -12 21 -11 21 8 5 22 -20 44 -25 25 -6 -15 15 -15 28
-1 28 5 0 8 -4 5 -9 -3 -5 6 -11 20 -14 20 -3 28 0 31 14 3 11 12 19 19 19 8
0 23 9 34 20 10 10 28 17 39 15 11 -2 40 7 63 19 46 24 72 31 178 47 36 5 74
11 86 12 11 2 25 7 32 11 12 7 72 19 191 37 36 5 69 13 75 18 21 15 100 31
110 21 6 -6 14 -10 20 -10 5 0 1 7 -10 15 -18 13 -17 14 17 15 20 0 39 3 43 7
4 4 13 8 19 8 34 1 77 18 77 30 0 9 -10 12 -32 10 -18 -2 -27 -1 -20 2 6 2 10
9 6 14 -3 5 -1 9 5 9 5 0 13 -5 16 -10 5 -8 11 -7 21 1 12 10 17 9 27 0 9 -10
8 -11 -8 -5 -16 6 -18 5 -7 -7 9 -10 15 -10 24 -1 7 7 19 12 28 12 13 0 13 -2
0 -11 -12 -9 -12 -10 -1 -7 25 7 24 28 -1 28 -12 0 -30 5 -38 10 -10 6 -3 7
24 3 27 -4 37 -3 32 5 -4 7 13 13 49 17 51 7 54 9 49 30 -3 13 0 26 7 31 9 5
10 2 6 -9 -10 -27 18 -20 32 7 8 13 10 30 6 38 -5 7 -5 10 0 6 4 -4 14 -3 22
3 8 8 13 8 13 1 0 -6 -6 -12 -12 -15 -7 -2 -9 -8 -5 -13 5 -5 17 3 29 19 11
15 29 27 40 27 11 0 34 16 51 35 17 19 36 35 42 35 6 0 22 12 36 26 24 25 24
26 4 41 -16 12 -16 14 -3 10 10 -3 20 -2 23 4 4 5 11 7 16 3 6 -3 21 3 33 15
24 22 29 72 11 101 -8 13 -7 13 10 0 17 -14 18 -13 12 3 -4 10 -3 16 2 13 5
-3 9 -17 9 -31 0 -13 -4 -22 -9 -19 -10 6 -12 -10 -2 -19 8 -9 43 42 43 63 0
9 9 24 21 33 21 18 23 64 3 60 -6 -1 -11 5 -11 12 0 10 4 12 12 5 7 -5 15 -7
18 -3 4 3 7 1 7 -5 0 -23 17 -11 33 24 10 19 15 40 11 45 -3 6 4 21 16 34 17
18 21 31 17 54 -4 21 -3 30 5 28 24 -4 43 113 43 258 0 127 -2 144 -23 184
-17 32 -22 54 -18 75 4 22 3 26 -3 16 -12 -17 -11 -18 -46 45 -16 28 -36 59
-46 70 -9 11 -20 31 -24 43 -4 14 -21 30 -39 37 -18 8 -38 21 -45 29 -7 9 -37
28 -67 43 -30 15 -54 31 -54 35 0 4 -10 8 -23 8 -13 0 -28 5 -34 11 -17 17
-101 39 -105 27 -3 -8 -14 -8 -38 0 -49 16 -138 18 -152 4 -15 -15 -48 -16
-48 -2 0 15 -19 12 -36 -5 -9 -8 -26 -15 -39 -15 -13 0 -27 -4 -30 -10 -3 -5
-17 -10 -30 -10 -38 0 -185 -57 -185 -72 0 -4 -19 -8 -42 -9 -24 0 -37 -3 -30
-6 23 -9 12 -31 -22 -43 -19 -6 -36 -19 -39 -30 -3 -11 -13 -20 -22 -20 -22 0
-145 -122 -145 -144 0 -9 -8 -16 -19 -16 -23 0 -100 -86 -107 -120 -10 -46
-14 -52 -35 -57 -15 -4 -20 -12 -17 -28 4 -17 1 -21 -12 -18 -14 4 -20 -6 -30
-46 -7 -28 -17 -51 -23 -51 -15 0 -53 -82 -62 -133 -4 -21 -14 -41 -21 -44 -8
-3 -14 -19 -14 -38 0 -19 -4 -36 -9 -39 -5 -4 -17 -40 -27 -82 -10 -42 -24
-78 -31 -81 -8 -3 -13 -22 -13 -49 0 -30 -6 -50 -19 -63 -20 -20 -36 -73 -32
-104 1 -9 -5 -20 -14 -23 -9 -4 -29 -35 -46 -70 -16 -35 -34 -64 -39 -64 -6 0
-10 -9 -10 -20 0 -11 -9 -29 -19 -39 -11 -11 -21 -27 -23 -38 -2 -11 -12 -18
-25 -17 -17 0 -21 -5 -21 -26 1 -15 -3 -33 -8 -41 -6 -10 -10 -8 -15 11 l-7
25 -1 -26 c-1 -14 -11 -34 -23 -45 -21 -19 -21 -19 -14 1 4 11 12 45 17 75 6
30 14 69 19 85 5 17 14 59 19 95 6 36 17 103 26 150 72 387 89 745 51 1047
-13 94 -12 98 8 115 12 9 25 17 29 18 12 0 141 63 147 71 3 3 16 10 30 13 14
4 41 15 60 23 88 41 225 93 241 93 10 0 21 5 24 10 3 6 16 10 29 10 13 0 37 7
54 16 45 22 317 91 452 113 342 58 668 71 975 40 254 -26 552 -88 770 -160 98
-33 397 -150 405 -160 8 -9 138 -69 149 -69 6 0 11 -4 11 -8 0 -5 11 -14 24
-20 l23 -10 -15 -74 c-13 -57 -16 -138 -16 -378 0 -316 10 -415 69 -735 16
-88 20 -170 5 -125 -4 14 -8 18 -9 9 -1 -9 -12 -21 -26 -27 -15 -7 -25 -20
-25 -32 0 -22 -25 -28 -34 -7 -3 6 -3 2 0 -10 4 -16 1 -23 -10 -23 -27 0 -67
-23 -62 -36 5 -12 -64 -61 -107 -77 -11 -4 -21 -16 -24 -27 -5 -20 -12 -23
-48 -21 -12 1 -24 -7 -30 -20 -9 -20 -48 -45 -152 -100 -24 -12 -43 -26 -43
-31 0 -4 -8 -8 -18 -8 -9 0 -23 -9 -29 -19 -7 -11 -28 -24 -47 -31 -20 -6 -36
-17 -36 -23 0 -7 -20 -20 -44 -30 -56 -23 -186 -106 -186 -118 0 -5 -8 -13
-17 -16 -23 -9 -83 -63 -83 -75 0 -6 -16 -25 -35 -44 -20 -19 -33 -39 -29 -45
3 -6 -3 -13 -15 -16 -12 -3 -21 -12 -21 -19 0 -8 -8 -22 -18 -32 -10 -10 -22
-26 -25 -36 -4 -9 -15 -16 -24 -15 -34 3 -44 -1 -55 -26 -6 -13 -26 -31 -45
-40 -19 -9 -37 -24 -40 -32 -12 -32 -65 -68 -128 -88 -15 -5 -16 -8 -6 -14 11
-7 9 -10 -8 -16 -11 -3 -25 -4 -30 0 -12 7 -62 -38 -65 -58 -1 -8 -8 -22 -16
-31 -10 -14 -15 -14 -22 -4 -6 10 -16 5 -38 -19 -16 -18 -37 -33 -46 -33 -9 0
-29 -11 -46 -25 -48 -41 -74 -33 -68 20 1 10 -4 69 -11 131 -9 84 -16 115 -29
124 -14 10 -16 19 -8 57 8 37 7 46 -7 57 -13 10 -16 24 -14 69 3 44 1 56 -9
52 -8 -3 -10 0 -6 6 3 6 14 9 24 6 12 -3 17 0 13 9 -2 7 -12 10 -21 6 -15 -5
-15 -4 -3 11 7 9 17 14 22 12 13 -9 46 29 60 69 7 20 19 36 27 36 11 0 13 18
10 89 -3 77 -6 93 -27 114 -12 14 -20 30 -17 36 9 13 -41 62 -84 82 -102 48
-212 54 -295 15 -55 -27 -62 -27 -209 -25 -149 2 -256 -6 -256 -21 0 -4 -21
-11 -47 -15 -48 -7 -181 -79 -190 -102 -3 -7 -11 -13 -17 -13 -7 0 -18 -11
-24 -25 -6 -14 -18 -25 -27 -25 -9 0 -15 -9 -15 -24 0 -14 -4 -27 -9 -30 -5
-3 -19 -35 -32 -71 -12 -36 -29 -65 -36 -65 -8 0 -13 -13 -13 -39 0 -22 -4
-41 -10 -43 -16 -5 -24 -207 -11 -269 7 -30 14 -64 17 -77 3 -13 9 -20 15 -16
8 4 9 -1 4 -17 -4 -13 -4 -21 0 -17 10 9 45 -65 45 -93 0 -10 8 -27 18 -37 56
-56 110 -192 110 -279 1 -47 8 -66 23 -58 10 7 0 -56 -11 -68 -4 -5 -32 -12
-61 -17 -34 -5 -43 -8 -24 -9 22 -1 26 -4 16 -10 -8 -5 -37 -7 -63 -4 -39 5
-51 2 -61 -11 -8 -11 -30 -18 -62 -21 -28 -2 -63 -8 -78 -14 -16 -6 -45 -12
-65 -12 -23 -1 -30 -3 -17 -7 15 -4 7 -9 -30 -19 -27 -8 -58 -14 -69 -14 -10
0 -25 -7 -33 -15 -8 -7 -27 -14 -43 -14 -16 0 -35 -7 -44 -15 -8 -8 -23 -15
-34 -15 -43 0 -80 -12 -76 -25 4 -9 -12 -17 -52 -25 -35 -7 -52 -15 -44 -20
15 -9 12 -11 -77 -41 -40 -13 -73 -27 -73 -31 0 -5 -16 -8 -35 -8 -48 0 -86
36 -92 84 -2 21 -10 57 -19 82 -13 40 -13 52 0 112 8 37 20 94 26 127 7 33 18
80 25 105 7 25 16 56 18 70 10 47 55 225 81 320 15 52 37 137 48 189 14 61 24
88 28 76 6 -17 8 -17 29 4 12 12 19 27 15 33 -5 7 -2 9 7 6 10 -4 15 1 16 13
1 15 -2 17 -16 10 -13 -7 -18 -6 -18 4 0 7 5 11 12 9 6 -3 11 6 11 21 0 14 -2
25 -3 25 -2 0 -52 -41 -110 -91 l-106 -91 -1 -87 c-1 -94 -17 -139 -96 -271
-73 -122 -112 -346 -91 -520 13 -105 43 -223 83 -330 25 -64 26 -65 59 -62 44
4 195 39 234 54 17 6 59 28 95 49 117 68 486 182 790 244 68 14 125 27 127 29
2 2 -5 64 -16 137 -24 163 -79 345 -116 379 -70 66 -115 192 -115 319 1 243
91 432 243 505 115 56 291 74 409 42 l57 -16 88 41 c80 37 93 40 142 35 76 -9
130 -42 160 -95 49 -89 21 -178 -74 -237 -44 -28 -46 -31 -40 -64 10 -49 10
-71 2 -102 -6 -23 -1 -34 28 -67 39 -43 42 -56 19 -82 -15 -16 -14 -23 5 -81
29 -91 39 -260 17 -312 l-16 -39 72 7 c40 4 91 11 112 17 50 14 185 102 262
173 33 31 68 56 78 56 10 0 43 24 74 53 31 30 99 82 150 117 76 52 104 78 161
154 110 145 172 198 401 335 327 197 562 359 687 474 51 47 202 245 232 304
30 60 56 134 86 248 39 144 60 180 92 154 16 -14 15 -102 -4 -318 l-6 -74 61
6 c49 4 88 18 187 68 91 45 136 62 167 63 42 1 43 0 43 -31 1 -18 -1 -30 -3
-28 -2 2 -32 -15 -65 -38 -34 -23 -104 -67 -155 -97 -84 -50 -115 -81 -97 -98
4 -4 76 -7 160 -7 84 0 151 -2 149 -4 -2 -2 2 -11 8 -19 10 -12 8 -18 -13 -36
-20 -18 -53 -26 -150 -40 -204 -28 -205 -29 -91 -98 l77 -47 18 20 c9 12 17
17 17 13 0 -5 4 -3 9 5 6 9 8 2 8 -21 -1 -21 -6 -35 -14 -35 -9 0 -10 4 -2 13
6 8 6 14 0 18 -12 8 -25 -12 -26 -39 0 -32 -53 -31 -136 4 l-72 30 -34 -29
c-40 -35 -76 -54 -203 -105 -119 -48 -118 -47 -208 -147 -42 -46 -236 -246
-433 -446 l-358 -363 41 -86 c27 -55 43 -104 46 -138 4 -49 2 -55 -34 -96 -22
-23 -32 -39 -24 -34 8 4 12 4 7 0 -4 -5 -13 -10 -20 -11 -7 -1 -39 -19 -72
-41 -33 -22 -79 -50 -102 -63 -23 -13 -39 -28 -36 -33 3 -6 1 -7 -6 -3 -21 14
-100 -46 -117 -89 -68 -167 -201 -599 -234 -762 -22 -110 -26 -257 -9 -313 5
-19 16 -152 24 -295 9 -164 20 -280 29 -315 52 -182 98 -499 98 -665 0 -114
-4 -166 -11 -159 -3 2 -17 -7 -32 -22 -32 -30 -84 -44 -139 -37 -22 3 -40 2
-40 -2 0 -4 43 -159 96 -344 109 -383 222 -731 261 -803 31 -57 13 -57 230 3
776 216 1491 690 1994 1321 523 656 824 1453 857 2264 24 586 -65 1129 -270
1644 -421 1059 -1289 1888 -2363 2259 -355 123 -696 189 -1083 211 -196 11
-235 11 -432 -1z m-1530 -864 c-7 -8 -17 -15 -23 -15 -6 0 -2 7 9 15 25 19 30
19 14 0z m-180 -277 c0 -355 -42 -707 -132 -1103 -11 -49 -26 -119 -34 -155
-8 -36 -25 -96 -37 -135 -17 -54 -23 -64 -25 -43 -2 14 -10 29 -19 32 -13 5
-14 4 -4 -8 12 -15 3 -49 -12 -47 -34 5 -47 -1 -47 -19 0 -11 -7 -23 -15 -26
-8 -4 -15 -13 -15 -21 0 -28 -57 -73 -108 -85 -32 -7 -49 -15 -46 -23 3 -7 -7
-15 -25 -18 -19 -4 -31 -13 -31 -22 0 -9 -12 -18 -31 -22 -18 -3 -34 -13 -36
-22 -2 -9 -19 -22 -36 -29 -54 -22 -62 -28 -65 -51 -2 -12 -9 -20 -15 -18 -26
8 -76 -71 -78 -125 l-1 -33 -8 30 c-7 28 -8 27 -9 -12 0 -24 -6 -43 -12 -43
-8 0 -9 -23 -4 -77 8 -86 11 -95 26 -73 9 13 10 13 6 -1 -3 -9 6 -54 19 -100
26 -88 27 -169 2 -264 -6 -22 -11 -58 -12 -79 -2 -22 -8 -42 -14 -44 -7 -2
-12 -21 -12 -43 0 -21 -4 -39 -10 -39 -5 0 -10 -21 -10 -48 0 -26 -4 -62 -9
-80 -6 -20 -6 -32 0 -32 5 0 9 -5 9 -11 0 -5 -4 -8 -9 -4 -5 3 -12 2 -15 -3
-6 -10 -19 -200 -18 -259 1 -24 -3 -43 -7 -43 -14 0 -24 -153 -15 -242 5 -57
9 -75 14 -58 6 22 7 21 13 -15 23 -155 46 -225 73 -225 10 0 15 -3 11 -6 -9
-9 51 -64 71 -64 9 0 24 -5 32 -11 12 -8 10 -9 -7 -4 -12 3 -24 2 -26 -3 -8
-11 33 -8 67 7 16 6 31 9 34 7 2 -3 -7 -8 -21 -11 -21 -6 -24 -10 -14 -20 9
-9 14 -10 19 -1 5 7 8 6 8 -4 1 -12 3 -12 14 3 12 15 14 7 20 -63 7 -77 33
-251 56 -370 15 -76 87 -314 119 -395 25 -63 155 -315 162 -315 5 0 9 -5 9
-11 0 -24 184 -273 255 -345 16 -17 53 -56 80 -85 28 -30 68 -69 90 -88 117
-99 174 -164 129 -147 -8 3 -12 2 -9 -4 3 -6 2 -10 -3 -10 -4 0 -16 -28 -26
-62 -25 -88 -33 -106 -55 -120 -17 -11 -18 -14 -4 -35 20 -30 8 -29 -33 2 -18
14 -36 25 -40 25 -6 0 -166 104 -191 125 -33 27 -39 32 -53 38 -23 10 -53 31
-65 43 -5 6 -48 42 -95 80 -153 125 -331 297 -430 413 -25 29 -50 58 -55 65
-54 59 -114 139 -110 146 3 5 -4 14 -15 20 -11 6 -50 57 -87 113 -37 56 -70
104 -74 107 -3 3 -14 19 -23 35 -9 17 -32 57 -51 90 -42 73 -170 333 -195 395
-10 25 -26 63 -36 85 -36 84 -103 296 -143 455 -149 591 -140 1252 26 1840 19
68 97 304 113 345 63 152 153 338 214 445 14 25 29 52 33 60 18 40 130 211
197 300 30 41 64 86 73 99 10 13 31 38 46 55 15 17 49 57 75 88 51 63 324 335
358 359 12 8 43 33 70 56 97 84 269 211 287 213 4 0 7 -91 7 -202z m4038 155
c62 -43 200 -149 212 -163 3 -3 41 -35 85 -72 94 -77 315 -301 369 -373 21
-27 48 -59 59 -71 12 -11 30 -31 40 -45 9 -13 43 -58 74 -99 68 -92 140 -200
172 -260 13 -25 29 -52 36 -60 13 -15 185 -355 185 -365 0 -3 8 -24 19 -48 50
-112 141 -378 141 -411 0 -9 4 -24 9 -34 15 -27 48 -168 71 -303 71 -416 76
-793 14 -1207 -28 -193 -143 -616 -200 -739 -8 -18 -21 -50 -28 -70 -13 -36
-71 -162 -122 -268 -14 -27 -38 -72 -55 -100 -16 -27 -35 -61 -42 -75 -6 -14
-14 -27 -18 -30 -3 -3 -14 -21 -25 -40 -10 -19 -21 -37 -24 -40 -3 -3 -21 -30
-40 -60 -19 -30 -37 -57 -40 -60 -13 -11 -70 -99 -70 -108 0 -6 -4 -12 -9 -14
-4 -1 -42 -43 -82 -93 -130 -159 -316 -353 -428 -445 -30 -25 -62 -52 -71 -60
-9 -8 -38 -33 -65 -54 -28 -22 -55 -44 -60 -50 -6 -6 -18 -15 -27 -21 -10 -5
-68 -44 -130 -86 -62 -42 -135 -89 -162 -105 -27 -16 -70 -41 -95 -56 -124
-73 -367 -185 -518 -238 -65 -23 -134 -48 -153 -55 -61 -23 -229 -65 -257 -65
-23 0 -25 2 -13 11 11 8 12 12 2 16 -6 2 -10 9 -6 14 3 5 1 9 -4 9 -5 0 -12
22 -16 50 -5 38 -10 48 -21 44 -8 -4 -15 -2 -15 3 0 9 16 16 155 68 129 47
359 154 375 174 3 4 25 15 50 26 25 11 47 22 50 26 3 4 43 32 90 63 389 257
680 577 864 950 74 150 84 173 119 276 36 107 53 167 66 235 7 33 17 76 22 95
22 82 50 339 56 510 8 239 -17 562 -63 810 -31 172 -55 296 -64 335 -5 22 -19
85 -31 140 -20 95 -170 697 -189 760 -4 17 -23 93 -40 170 -17 77 -35 153 -40
169 -9 27 -8 28 17 23 34 -6 60 17 44 37 -9 11 -9 16 -1 21 6 4 14 4 17 1 4
-3 1 -6 -6 -6 -7 0 -9 -5 -5 -11 4 -8 9 -8 17 0 12 12 31 15 24 4 -3 -5 5 -8
18 -8 13 0 23 5 22 10 -1 6 22 10 51 11 28 0 52 -3 52 -8 0 -4 5 -8 11 -8 5 0
8 4 4 9 -5 9 24 31 39 31 15 0 4 -20 -11 -21 -15 0 -15 -2 2 -8 22 -9 71 19
53 30 -6 4 4 13 21 20 27 12 31 19 31 51 0 26 4 38 14 38 9 0 12 7 9 20 -4 14
2 22 23 31 16 6 41 18 56 26 15 7 31 14 35 13 8 0 10 5 12 45 0 14 4 24 9 24
25 -4 32 4 32 41 0 37 -7 45 -32 41 -5 0 -8 17 -8 39 0 28 -4 40 -15 40 -8 0
-19 9 -25 20 -9 16 -6 22 15 36 31 20 33 37 3 29 -20 -5 -20 -4 -6 5 9 6 15
17 12 24 -3 8 -1 17 5 21 6 3 9 0 5 -8 -3 -8 -1 -18 5 -21 17 -11 32 33 30 88
-1 29 1 58 6 66 6 10 3 12 -13 8 -12 -4 -22 -3 -22 1 0 14 -70 41 -105 41 -48
0 -135 -20 -135 -31 0 -5 -6 -9 -14 -9 -8 0 -22 -7 -30 -16 -9 -8 -31 -18 -49
-21 l-33 -5 4 73 c4 72 -12 179 -28 179 -4 0 -11 -7 -14 -16 -6 -17 -26 -10
-26 9 0 7 4 7 9 -2 8 -12 11 -9 17 12 3 16 5 29 3 30 -63 40 -168 38 -199 -3
-34 -45 -62 -104 -51 -108 6 -2 11 -8 11 -13 0 -4 -6 -6 -14 -3 -18 7 -26 -17
-34 -101 l-6 -70 -12 60 c-7 33 -18 132 -23 220 -11 165 -15 505 -6 505 3 0
35 -21 73 -47z m259 -535 c-3 -8 -6 -5 -6 6 -1 11 2 17 5 13 3 -3 4 -12 1 -19z
m-257 -108 c0 -5 -2 -10 -4 -10 -3 0 -8 5 -11 10 -3 6 -1 10 4 10 6 0 11 -4
11 -10z m656 -98 c-4 -3 -14 2 -24 12 -16 18 -16 18 6 6 13 -6 21 -14 18 -18z
m-91 -191 c-3 -6 -11 -11 -16 -11 -5 0 -4 6 3 14 14 16 24 13 13 -3z m-2715
-66 c0 -8 -9 -19 -20 -25 -16 -9 -18 -8 -14 5 4 8 10 15 15 15 5 0 9 5 9 11 0
5 -5 7 -12 3 -7 -4 -8 -3 -4 5 9 14 26 5 26 -14z m2790 -47 c0 -4 -4 -8 -9 -8
-6 0 -12 4 -15 8 -3 5 1 9 9 9 8 0 15 -4 15 -9z m-2893 -24 c-3 -3 -12 -4 -19
-1 -8 3 -5 6 6 6 11 1 17 -2 13 -5z m2910 0 c-3 -3 -12 -4 -19 -1 -8 3 -5 6 6
6 11 1 17 -2 13 -5z m-14 -66 c-4 -7 -8 -19 -10 -27 -2 -13 -21 -31 -34 -31
-4 0 -10 7 -13 16 -6 15 -4 15 10 3 15 -12 17 -12 12 1 -3 8 1 23 10 33 17 19
37 23 25 5z m-3306 -164 c-3 -3 -12 -4 -19 -1 -8 3 -5 6 6 6 11 1 17 -2 13 -5z
m-110 -40 c-3 -3 -12 -4 -19 -1 -8 3 -5 6 6 6 11 1 17 -2 13 -5z m-254 -51
c-7 -2 -19 -2 -25 0 -7 3 -2 5 12 5 14 0 19 -2 13 -5z m3287 -5 c0 -13 -24
-22 -28 -10 -2 7 -9 9 -14 6 -6 -4 -8 -3 -5 2 7 11 47 13 47 2z m-3335 -8 c-3
-5 -16 -10 -28 -9 -20 1 -20 2 3 9 14 4 26 8 28 9 2 1 0 -3 -3 -9z m-97 -25
c-3 -3 -9 2 -12 12 -6 14 -5 15 5 6 7 -7 10 -15 7 -18z m39 9 c-3 -3 -12 -4
-19 -1 -8 3 -5 6 6 6 11 1 17 -2 13 -5z m816 -1 c-13 -2 -33 -2 -45 0 -13 2
-3 4 22 4 25 0 35 -2 23 -4z m-1076 -49 c-3 -3 -12 -4 -19 -1 -8 3 -5 6 6 6
11 1 17 -2 13 -5z m-22 -25 c-5 -6 -55 0 -55 7 0 3 13 3 29 2 16 -1 28 -5 26
-9z m-80 -9 c3 -6 -1 -7 -9 -4 -18 7 -21 14 -7 14 6 0 13 -4 16 -10z m3326
-153 c-17 -17 -23 -19 -33 -9 -11 11 -10 12 4 7 11 -4 18 0 23 14 3 12 11 18
17 15 6 -4 2 -15 -11 -27z m113 -347 c8 -30 46 -181 85 -335 40 -154 76 -298
81 -320 5 -22 13 -58 19 -80 6 -22 25 -110 41 -195 17 -85 36 -175 41 -200 24
-100 64 -413 79 -625 18 -238 -1 -546 -45 -725 -32 -135 -70 -259 -91 -299 -8
-14 -14 -29 -14 -33 0 -10 -92 -211 -100 -218 -10 -10 -50 -69 -50 -75 0 -6
-51 -86 -60 -95 -3 -3 -9 -12 -15 -21 -32 -51 -159 -202 -231 -273 -41 -41
-174 -159 -196 -174 -13 -9 -25 -19 -28 -22 -3 -4 -48 -35 -100 -70 -137 -91
-141 -93 -182 -115 -21 -11 -38 -23 -38 -27 0 -5 -5 -8 -11 -8 -16 0 -143 -62
-147 -72 -2 -4 -10 -8 -19 -8 -14 0 -149 -52 -185 -70 -26 -14 -140 -42 -146
-36 -3 3 3 6 14 6 16 0 16 2 4 10 -13 8 -46 119 -67 222 -3 16 -9 28 -13 28
-8 0 -26 54 -40 124 -10 43 -8 52 15 93 13 25 23 49 20 53 -3 5 -1 11 3 14 5
3 9 -6 8 -21 0 -14 5 -27 12 -29 7 -1 8 0 2 3 -15 7 -2 23 21 23 12 0 19 7 19
20 0 12 10 25 25 32 16 7 27 22 31 45 3 18 10 35 14 38 17 10 22 115 10 202
-6 48 -13 130 -15 182 -2 52 -8 97 -13 100 -5 3 -12 29 -15 58 -3 29 -12 65
-20 80 -8 15 -20 80 -27 143 -7 63 -17 118 -22 121 -6 4 -14 87 -18 185 -9
175 -12 210 -26 267 -4 16 -2 27 4 27 6 0 5 15 -3 38 -24 69 -29 173 -11 235
9 30 16 71 16 91 0 20 4 36 10 36 5 0 7 13 3 32 -4 21 -3 29 5 24 12 -7 18 12
47 138 8 38 20 76 26 83 6 7 9 22 6 32 -3 13 -1 18 8 15 17 -7 58 151 59 228
0 37 3 52 9 43 4 -8 5 -20 2 -25 -3 -6 1 -10 9 -10 9 0 18 14 23 38 9 47 8 42
21 75 6 15 18 27 26 27 17 0 41 28 32 37 -4 4 -16 2 -26 -5 -12 -7 -20 -8 -20
-2 0 11 8 13 59 14 21 1 36 7 38 16 4 13 3 13 -6 0 -5 -8 -13 -11 -17 -8 -3 4
1 14 10 23 9 9 16 12 16 6 0 -6 7 -11 15 -11 17 0 56 40 49 51 -2 4 0 10 5 14
6 3 8 -3 6 -15 -4 -21 9 -28 20 -10 3 6 12 10 20 10 16 0 75 54 75 68 0 6 -6
13 -12 16 -7 3 -2 3 10 0 21 -5 23 -3 18 14 -4 11 -2 23 4 27 5 3 10 13 10 21
0 9 -5 12 -12 8 -7 -5 -8 -3 -3 5 5 9 10 10 18 2 9 -9 8 -17 -1 -31 -17 -27
-15 -35 5 -19 15 13 15 12 4 -10 -10 -18 -10 -25 0 -35 9 -8 10 -8 5 1 -8 15
18 69 36 75 21 7 16 199 -7 291 -4 16 -15 27 -28 30 -21 3 -21 4 3 14 33 14
64 49 55 62 -3 6 -1 11 5 11 13 0 70 57 70 70 0 6 3 9 8 8 8 -3 12 5 12 24 0
6 -12 1 -27 -13 -15 -13 -22 -17 -15 -8 6 9 9 19 5 23 -16 15 22 25 38 10 15
-14 23 -9 84 53 37 37 72 67 76 65 5 -1 8 2 7 6 -4 11 63 78 74 74 4 -1 7 2 6
6 -4 11 63 78 74 75 4 -2 7 1 5 5 -3 11 64 78 76 74 4 -1 0 11 -9 27 -15 25
-20 28 -33 18 -14 -11 -14 -10 -2 6 13 17 15 17 33 -3 22 -23 52 -14 63 20 4
11 10 18 14 16 3 -3 27 18 51 45 l45 50 38 -148 c21 -81 44 -173 51 -203z
m-3674 334 c0 -8 -19 -13 -24 -6 -3 5 1 9 9 9 8 0 15 -2 15 -3z m-40 -38 c0
-3 -4 -8 -10 -11 -5 -3 -10 -1 -10 4 0 6 5 11 10 11 6 0 10 -2 10 -4z m3537
-16 c-1 -10 -3 -17 -6 -15 -2 3 -10 0 -16 -5 -9 -8 -14 -6 -19 5 -3 9 -2 14 3
11 5 -3 14 1 21 9 16 20 19 19 17 -5z m-3633 -96 c3 -8 2 -12 -4 -9 -6 3 -10
10 -10 16 0 14 7 11 14 -7z m3540 7 c3 -5 -1 -11 -9 -14 -9 -4 -12 -1 -8 9 6
16 10 17 17 5z m-54 -57 c0 -9 -35 -44 -44 -44 -5 0 -1 9 8 19 10 11 15 24 11
30 -3 7 0 8 9 5 9 -3 16 -8 16 -10z m-89 -78 c18 11 9 -9 -13 -27 -27 -24 -36
-25 -16 -1 9 9 14 23 12 30 -1 7 0 8 3 2 2 -5 9 -8 14 -4z m-91 -106 c0 -4 -6
-10 -14 -13 -10 -4 -12 0 -9 14 5 18 23 18 23 -1z m-81 -81 c-28 -24 -37 -25
-17 -1 9 9 13 24 10 32 -5 13 -3 13 11 1 16 -13 15 -15 -4 -32z m-4212 -41
c-3 -8 -6 -5 -6 6 -1 11 2 17 5 13 3 -3 4 -12 1 -19z m4054 -105 c7 -10 9 -15
4 -10 -4 4 -18 -1 -29 -10 -21 -18 -21 -18 -3 3 9 11 14 24 10 27 -3 4 -4 7
-1 7 3 0 12 -8 19 -17z m-2438 -96 c3 -8 -1 -14 -8 -14 -7 0 -11 6 -8 14 3 7
6 13 8 13 2 0 5 -6 8 -13z m28 -81 c5 3 9 0 9 -6 0 -7 -7 -9 -16 -6 -9 3 -18
6 -20 6 -3 0 -2 5 2 12 6 9 9 9 12 0 2 -7 8 -10 13 -6z m44 -85 c3 -5 2 -12
-3 -15 -5 -3 -9 1 -9 9 0 17 3 19 12 6z m2259 -186 c-4 -8 -11 -15 -16 -15 -6
0 -5 6 2 15 7 8 14 15 16 15 2 0 1 -7 -2 -15z m-19 -63 c-3 -3 -11 0 -18 7 -9
10 -8 11 6 5 10 -3 15 -9 12 -12z m-130 -62 c-3 -5 -12 -10 -18 -10 -7 0 -6 4
3 10 19 12 23 12 15 0z m-3248 -202 c-3 -7 -5 -2 -5 12 0 14 2 19 5 13 2 -7 2
-19 0 -25z m-511 -833 c0 -14 -4 -25 -8 -25 -10 0 -10 13 -2 34 9 23 12 20 10
-9z m50 -45 c0 -12 -4 -16 -9 -11 -5 5 -6 14 -3 20 10 15 12 14 12 -9z m373
-105 c1 13 4 16 9 8 4 -6 28 -13 52 -15 34 -2 44 -7 42 -18 -3 -12 -1 -13 9
-2 7 6 22 12 34 11 20 0 20 0 0 -8 -15 -6 -8 -9 24 -9 24 0 49 -6 54 -11 6 -6
21 -11 33 -11 13 0 29 -7 38 -15 17 -17 36 -20 36 -5 0 6 33 10 80 10 47 0 80
-4 80 -10 0 -14 19 -12 35 4 16 16 156 10 167 -7 3 -5 6 -24 6 -41 0 -17 5
-44 11 -59 6 -16 11 -43 11 -60 1 -18 8 -50 17 -72 8 -22 19 -71 23 -110 5
-38 13 -99 19 -135 16 -98 13 -552 -5 -700 -23 -196 -26 -215 -35 -220 -4 -3
-9 -26 -10 -52 -2 -43 -4 -45 -25 -36 -29 14 -239 229 -295 303 -219 292 -346
585 -405 935 -16 98 -29 369 -15 330 8 -21 9 -22 10 -5z m136 -3 c-6 -7 -45 9
-45 18 0 4 11 3 24 -3 14 -7 23 -13 21 -15z m452 -18 c-3 -3 -12 -4 -19 -1 -8
3 -5 6 6 6 11 1 17 -2 13 -5z m50 -10 c-3 -3 -12 -4 -19 -1 -8 3 -5 6 6 6 11
1 17 -2 13 -5z m2453 -1349 c0 -8 -4 -15 -10 -15 -5 0 -7 7 -4 15 4 8 8 15 10
15 2 0 4 -7 4 -15z m-48 -81 c-9 -16 -10 -14 -9 8 1 15 6 23 11 18 4 -4 4 -16
-2 -26z m-97 -74 c3 -5 1 -10 -4 -10 -6 0 -11 5 -11 10 0 6 2 10 4 10 3 0 8
-4 11 -10z m-2375 -460 c0 -5 -4 -10 -10 -10 -5 0 -10 5 -10 10 0 6 5 10 10
10 6 0 10 -4 10 -10z"/>
<path d="M7276 6757 c3 -10 9 -15 12 -12 3 3 0 11 -7 18 -10 9 -11 8 -5 -6z"/>
<path d="M7102 5994 c-1 -20 1 -34 5 -30 9 9 11 66 3 66 -4 0 -7 -16 -8 -36z"/>
<path d="M7075 5980 c3 -5 8 -10 11 -10 2 0 4 5 4 10 0 6 -5 10 -11 10 -5 0
-7 -4 -4 -10z"/>
<path d="M2930 1819 c0 -11 5 -17 10 -14 6 3 10 13 10 21 0 8 -4 14 -10 14 -5
0 -10 -9 -10 -21z"/>
<path d="M4126 7547 c-16 -12 -16 -14 -2 -26 14 -12 19 -11 36 4 33 30 3 49
-34 22z"/>
<path d="M4221 7551 c-12 -8 -12 -12 -2 -25 12 -14 15 -14 36 2 32 24 0 45
-34 23z"/>
<path d="M4275 7520 c-25 -26 -27 -32 -15 -45 13 -12 20 -9 53 21 42 39 42 39
11 48 -14 4 -28 -2 -49 -24z"/>
<path d="M4040 7531 c0 -18 18 -21 30 -6 10 13 9 15 -9 15 -11 0 -21 -4 -21
-9z"/>
<path d="M4330 7485 c-33 -34 -41 -48 -32 -57 8 -8 15 -8 26 2 9 7 13 16 10
21 -3 5 1 6 8 4 8 -3 27 8 43 25 25 26 27 32 15 40 -22 14 -22 14 -70 -35z"/>
<path d="M3977 7513 c-4 -3 0 -14 9 -24 13 -14 20 -16 35 -6 13 8 15 15 7 24
-11 14 -40 17 -51 6z"/>
<path d="M4080 7505 c-16 -20 -1 -38 23 -29 21 8 22 18 3 33 -10 9 -16 8 -26
-4z"/>
<path d="M4166 7501 c-14 -15 -14 -20 -3 -29 20 -17 63 14 46 34 -15 18 -23
18 -43 -5z"/>
<path d="M3920 7490 c-13 -8 -11 -14 12 -36 22 -23 29 -25 42 -15 14 12 14 16
-2 37 -19 26 -29 29 -52 14z"/>
<path d="M4383 7450 c-36 -33 -51 -54 -47 -64 3 -9 9 -16 13 -16 3 1 33 25 66
55 49 45 57 57 45 65 -21 14 -19 15 -77 -40z"/>
<path d="M4030 7465 c-10 -12 -10 -18 0 -31 11 -13 15 -13 27 -1 13 13 8 47
-7 47 -4 0 -13 -7 -20 -15z"/>
<path d="M4214 7461 c-18 -14 -19 -20 -9 -34 11 -16 13 -15 29 2 12 13 15 25
9 34 -7 13 -11 13 -29 -2z"/>
<path d="M3863 7462 c-9 -6 -5 -17 16 -42 24 -30 31 -33 44 -21 15 12 14 16
-5 42 -22 30 -34 34 -55 21z"/>
<path d="M4121 7460 c-14 -8 -8 -40 7 -40 5 0 15 6 21 14 15 17 -8 39 -28 26z"/>
<path d="M4430 7411 c-57 -52 -63 -61 -51 -75 13 -15 16 -15 42 10 16 15 26
31 23 36 -3 5 0 7 8 6 7 -2 12 3 10 10 -1 8 2 11 7 8 5 -3 20 3 32 13 21 18
22 21 9 35 -13 13 -22 8 -80 -43z"/>
<path d="M3811 7431 c-11 -7 -8 -17 19 -51 29 -37 34 -40 48 -26 14 13 12 19
-12 50 -29 38 -33 41 -55 27z"/>
<path d="M3987 7422 c-16 -17 -16 -20 -2 -32 13 -11 19 -11 31 1 12 12 12 18
1 33 -12 16 -14 16 -30 -2z"/>
<path d="M4072 7417 c-15 -17 1 -42 23 -33 18 6 17 37 -1 43 -6 2 -16 -2 -22
-10z"/>
<path d="M4161 7417 c-11 -15 -6 -47 9 -47 4 0 13 7 20 16 11 12 11 18 -2 30
-13 13 -16 13 -27 1z"/>
<path d="M4246 7411 c-15 -16 -15 -19 -1 -31 13 -11 19 -11 32 3 15 15 12 47
-5 47 -5 0 -16 -8 -26 -19z"/>
<path d="M4474 7367 c-53 -51 -66 -68 -57 -78 13 -13 21 -8 108 69 44 39 47
44 33 58 -14 15 -22 10 -84 -49z"/>
<path d="M3759 7397 c-15 -11 -13 -17 20 -55 32 -37 39 -41 55 -29 16 12 15
16 -21 55 -32 36 -40 40 -54 29z m58 -62 c0 -8 -4 -12 -9 -9 -5 3 -6 10 -3 15
9 13 12 11 12 -6z"/>
<path d="M3931 7376 c-9 -10 -8 -16 4 -26 21 -17 51 6 34 26 -6 8 -15 14 -19
14 -4 0 -13 -6 -19 -14z"/>
<path d="M4022 7374 c-11 -12 -11 -17 1 -29 13 -12 17 -12 31 4 12 13 13 20 4
29 -15 15 -20 15 -36 -4z"/>
<path d="M4112 7367 c-7 -8 -7 -18 -2 -27 8 -13 11 -13 26 2 9 9 13 21 10 27
-9 15 -21 14 -34 -2z"/>
<path d="M4200 7365 c-16 -20 -1 -38 23 -29 21 8 22 18 3 33 -10 9 -16 8 -26
-4z"/>
<path d="M4287 7362 c-25 -27 -3 -46 30 -25 18 12 21 19 12 29 -15 18 -23 18
-42 -4z"/>
<path d="M4537 7342 c-21 -21 -34 -42 -30 -47 5 -4 3 -5 -3 -2 -14 8 -54 -20
-54 -38 0 -32 25 -23 90 35 44 39 67 66 63 76 -9 23 -27 16 -66 -24z"/>
<path d="M3702 7358 c-7 -10 1 -25 29 -57 36 -40 41 -43 55 -29 15 14 13 20
-21 57 -40 44 -47 48 -63 29z"/>
<path d="M3893 7339 c-11 -11 -7 -39 6 -39 17 1 31 18 25 33 -7 20 -16 21 -31
6z"/>
<path d="M3981 7337 c-11 -15 -6 -47 9 -47 4 0 13 7 20 16 11 12 11 18 -2 30
-13 13 -16 13 -27 1z"/>
<path d="M4062 7327 c-7 -8 -7 -17 2 -29 12 -17 14 -17 29 0 13 14 14 21 5 30
-15 15 -23 15 -36 -1z"/>
<path d="M4150 7326 c-10 -13 -10 -19 0 -32 12 -14 15 -14 29 0 14 15 14 17 0
32 -14 14 -17 14 -29 0z"/>
<path d="M4557 7277 c-51 -46 -67 -66 -62 -79 8 -21 19 -15 95 56 41 38 50 52
43 67 -7 16 -16 10 -76 -44z"/>
<path d="M3650 7315 c-12 -14 -7 -19 13 -16 5 1 6 -3 3 -7 -7 -12 28 -44 38
-35 4 4 4 0 1 -9 -8 -19 7 -30 29 -22 22 9 20 16 -16 62 -36 45 -49 50 -68 27z"/>
<path d="M4231 7316 c-9 -10 -8 -16 4 -26 21 -17 51 6 34 26 -6 8 -15 14 -19
14 -4 0 -13 -6 -19 -14z"/>
<path d="M4320 7314 c-11 -12 -11 -18 2 -30 13 -13 16 -12 32 5 19 21 14 41
-8 41 -8 0 -19 -7 -26 -16z"/>
<path d="M3847 7297 c-13 -10 -14 -15 -3 -29 12 -17 14 -17 30 1 14 15 14 20
3 29 -10 9 -18 9 -30 -1z"/>
<path d="M3932 7287 c-7 -8 -7 -18 -2 -27 8 -13 11 -13 26 2 9 9 13 21 10 27
-9 15 -21 14 -34 -2z"/>
<path d="M4019 7286 c-14 -10 -15 -15 -4 -29 11 -16 13 -16 29 2 22 24 1 47
-25 27z"/>
<path d="M3611 7276 c-16 -19 57 -110 76 -94 18 15 17 19 -19 66 -35 46 -40
48 -57 28z"/>
<path d="M4101 7276 c-8 -10 -8 -16 3 -25 10 -9 16 -8 26 3 12 15 6 36 -9 36
-5 0 -14 -6 -20 -14z"/>
<path d="M4191 7276 c-14 -17 -7 -36 14 -36 22 0 29 20 13 36 -13 13 -16 13
-27 0z"/>
<path d="M4277 7272 c-15 -16 -15 -21 -4 -30 10 -9 18 -8 31 1 14 10 15 15 3
30 -12 18 -13 18 -30 -1z"/>
<path d="M4368 7273 c-17 -20 -14 -43 7 -43 7 0 18 7 25 16 11 12 11 18 -2 30
-13 13 -16 13 -30 -3z"/>
<path d="M4587 7223 c-57 -50 -64 -60 -52 -72 12 -12 22 -7 74 38 64 56 66 58
52 79 -6 10 -25 -1 -74 -45z"/>
<path d="M3802 7257 c-12 -14 -7 -47 8 -47 19 0 29 27 17 44 -11 16 -15 16
-25 3z"/>
<path d="M3881 7246 c-9 -10 -8 -16 4 -26 21 -17 51 6 34 26 -6 8 -15 14 -19
14 -4 0 -13 -6 -19 -14z"/>
<path d="M3970 7246 c-10 -13 -10 -19 0 -32 12 -14 15 -14 29 0 14 15 14 17 0
32 -14 14 -17 14 -29 0z"/>
<path d="M3572 7238 c-18 -18 -15 -27 22 -68 30 -33 37 -37 52 -26 16 12 14
17 -21 60 -22 25 -40 46 -40 46 -1 0 -6 -5 -13 -12z"/>
<path d="M4051 7236 c-9 -10 -8 -16 4 -26 21 -17 51 6 34 26 -6 8 -15 14 -19
14 -4 0 -13 -6 -19 -14z"/>
<path d="M4140 7235 c-10 -12 -10 -18 0 -31 11 -13 15 -13 27 -1 13 13 8 47
-7 47 -4 0 -13 -7 -20 -15z"/>
<path d="M4226 7231 c-7 -11 3 -41 13 -41 14 0 29 23 24 36 -6 16 -29 19 -37
5z"/>
<path d="M4319 7226 c-14 -10 -15 -15 -4 -29 11 -16 13 -16 29 2 22 24 1 47
-25 27z"/>
<path d="M4406 7221 c-14 -15 -14 -20 -3 -30 11 -8 18 -7 31 8 10 11 15 25 11
30 -9 16 -20 14 -39 -8z"/>
<path d="M3751 7217 c-11 -15 -6 -47 9 -47 4 0 13 7 20 16 11 12 11 18 -2 30
-13 13 -16 13 -27 1z"/>
<path d="M3832 7207 c-7 -8 -7 -17 2 -29 12 -17 14 -17 29 0 13 14 14 21 5 30
-15 15 -23 15 -36 -1z"/>
<path d="M4617 7169 c-47 -42 -55 -54 -46 -65 15 -19 18 -17 73 33 36 34 44
47 38 63 -7 19 -12 16 -65 -31z"/>
<path d="M3921 7196 c-8 -10 -8 -16 3 -25 10 -9 16 -8 26 3 12 15 6 36 -9 36
-5 0 -14 -6 -20 -14z"/>
<path d="M4010 7195 c-16 -20 -1 -38 23 -29 21 8 22 18 3 33 -10 9 -16 8 -26
-4z"/>
<path d="M4096 7191 c-22 -24 -1 -47 25 -27 14 10 15 15 4 29 -11 16 -13 16
-29 -2z"/>
<path d="M3532 7188 c-18 -18 -14 -30 19 -66 24 -27 33 -31 45 -22 19 17 18
19 -20 62 -25 29 -35 35 -44 26z"/>
<path d="M4180 7185 c-13 -16 -6 -35 15 -35 18 0 26 15 19 34 -8 20 -18 20
-34 1z"/>
<path d="M4271 7187 c-11 -15 -6 -47 9 -47 4 0 13 7 20 16 11 12 11 18 -2 30
-13 13 -16 13 -27 1z"/>
<path d="M4446 7179 c-18 -17 -18 -21 -5 -35 14 -13 17 -12 34 6 16 18 17 22
4 34 -12 12 -17 11 -33 -5z"/>
<path d="M4351 7176 c-17 -20 13 -43 34 -26 12 10 13 16 4 26 -6 8 -15 14 -19
14 -4 0 -13 -6 -19 -14z"/>
<path d="M3701 7166 c-9 -10 -8 -16 4 -26 21 -17 51 6 34 26 -6 8 -15 14 -19
14 -4 0 -13 -6 -19 -14z"/>
<path d="M3790 7166 c-10 -13 -10 -19 0 -32 12 -14 15 -14 29 0 14 15 14 17 0
32 -14 14 -17 14 -29 0z"/>
<path d="M3871 7156 c-9 -10 -8 -16 4 -26 21 -17 51 6 34 26 -6 8 -15 14 -19
14 -4 0 -13 -6 -19 -14z"/>
<path d="M3962 7158 c-15 -15 -16 -31 0 -22 6 4 8 3 4 -4 -10 -16 10 -24 23
-8 11 13 5 46 -8 46 -4 0 -12 -5 -19 -12z"/>
<path d="M4043 7144 c-3 -8 -1 -20 5 -26 15 -15 43 8 35 28 -7 19 -32 18 -40
-2z"/>
<path d="M4137 7149 c-14 -8 -15 -14 -6 -30 8 -16 13 -18 25 -8 28 23 13 55
-19 38z"/>
<path d="M4220 7146 c-10 -13 -10 -19 0 -32 12 -14 15 -14 29 0 14 15 14 17 0
32 -14 14 -17 14 -29 0z"/>
<path d="M3483 7131 c-10 -16 -7 -23 22 -51 30 -30 55 -34 55 -9 0 11 -52 79
-60 79 -3 0 -10 -8 -17 -19z"/>
<path d="M4307 7135 c-15 -11 -16 -14 -2 -25 13 -11 19 -11 31 2 22 21 -3 42
-29 23z"/>
<path d="M4485 7130 c-14 -16 -16 -23 -7 -32 10 -10 17 -8 33 8 17 17 18 22 6
32 -11 9 -18 8 -32 -8z"/>
<path d="M4642 7109 c-35 -33 -41 -43 -31 -55 17 -20 89 38 89 72 0 33 -8 30
-58 -17z"/>
<path d="M3651 7126 c-9 -10 -8 -16 4 -26 21 -17 51 6 34 26 -6 8 -15 14 -19
14 -4 0 -13 -6 -19 -14z"/>
<path d="M4392 7128 c-19 -19 5 -40 30 -27 15 8 17 13 7 25 -14 17 -21 18 -37
2z"/>
<path d="M3741 7116 c-8 -10 -8 -16 3 -25 10 -9 16 -8 26 3 12 15 6 36 -9 36
-5 0 -14 -6 -20 -14z"/>
<path d="M3826 7117 c-16 -12 -17 -14 -1 -27 14 -11 18 -11 31 2 13 12 13 16
1 26 -10 9 -18 9 -31 -1z"/>
<path d="M3916 7114 c-16 -11 -17 -16 -6 -29 10 -12 16 -13 26 -4 30 25 11 56
-20 33z"/>
<path d="M4002 7107 c-6 -7 -7 -18 -3 -25 8 -14 41 -6 41 10 0 5 -4 6 -10 3
-6 -3 -7 1 -4 9 7 19 -9 21 -24 3z"/>
<path d="M4091 7107 c-11 -15 -6 -47 9 -47 4 0 13 7 20 16 11 12 11 18 -2 30
-13 13 -16 13 -27 1z"/>
<path d="M4171 7096 c-9 -10 -8 -16 4 -26 21 -17 51 6 34 26 -6 8 -15 14 -19
14 -4 0 -13 -6 -19 -14z"/>
<path d="M4260 7096 c-10 -13 -10 -19 0 -32 12 -14 15 -14 29 0 14 15 14 17 0
32 -14 14 -17 14 -29 0z"/>
<path d="M3450 7080 c-10 -20 -9 -26 14 -48 23 -23 28 -25 40 -12 13 13 11 19
-14 49 l-28 33 -12 -22z"/>
<path d="M3610 7086 c-10 -13 -10 -19 0 -32 12 -14 15 -14 29 0 14 15 14 17 0
32 -14 14 -17 14 -29 0z"/>
<path d="M4341 7086 c-9 -10 -8 -16 4 -26 21 -17 51 6 34 26 -6 8 -15 14 -19
14 -4 0 -13 -6 -19 -14z"/>
<path d="M4430 7085 c-10 -12 -10 -18 0 -31 11 -13 15 -13 27 -1 13 13 8 47
-7 47 -4 0 -13 -7 -20 -15z"/>
<path d="M4527 7085 c-10 -7 -15 -19 -11 -29 8 -21 17 -20 38 3 22 24 1 46
-27 26z"/>
<path d="M3691 7076 c-9 -10 -8 -16 4 -26 21 -17 51 6 34 26 -6 8 -15 14 -19
14 -4 0 -13 -6 -19 -14z"/>
<path d="M3780 7076 c-10 -13 -10 -19 0 -32 12 -14 15 -14 29 0 14 15 14 17 0
32 -14 14 -17 14 -29 0z"/>
<path d="M3863 7064 c-9 -23 13 -40 32 -24 12 10 13 16 4 26 -15 18 -28 18
-36 -2z"/>
<path d="M3951 7067 c-8 -10 -7 -18 2 -31 12 -16 14 -16 26 -2 14 16 9 46 -7
46 -5 0 -15 -6 -21 -13z"/>
<path d="M4041 7067 c-11 -15 -6 -47 9 -47 4 0 13 7 20 16 11 12 11 18 -2 30
-13 13 -16 13 -27 1z"/>
<path d="M4667 7052 c-20 -21 -24 -31 -16 -45 14 -24 35 -7 44 34 9 41 3 44
-28 11z"/>
<path d="M4127 7055 c-15 -11 -16 -14 -2 -25 13 -11 19 -11 31 2 22 21 -3 42
-29 23z"/>
<path d="M3560 7046 c-10 -13 -10 -19 0 -32 12 -14 15 -14 29 0 14 15 14 17 0
32 -14 14 -17 14 -29 0z"/>
<path d="M4211 7046 c-8 -10 -8 -16 3 -25 10 -9 16 -8 26 3 12 15 6 36 -9 36
-5 0 -14 -6 -20 -14z"/>
<path d="M4300 7045 c-20 -24 4 -45 26 -24 13 14 13 17 1 27 -11 10 -17 9 -27
-3z"/>
<path d="M4386 7041 c-14 -15 -14 -20 -3 -29 10 -9 18 -9 30 1 13 10 14 15 3
29 -12 17 -14 17 -30 -1z"/>
<path d="M4567 7042 c-10 -11 -15 -26 -11 -36 8 -21 17 -20 37 2 14 15 15 21
4 36 -12 16 -14 16 -30 -2z"/>
<path d="M3647 7035 c-15 -11 -16 -14 -2 -25 13 -11 19 -11 31 2 22 21 -3 42
-29 23z"/>
<path d="M3735 7034 c-17 -12 -17 -16 -5 -28 22 -21 53 2 36 26 -10 14 -14 14
-31 2z"/>
<path d="M4472 7038 c-8 -8 -8 -17 -1 -30 10 -19 12 -19 30 -2 14 13 16 20 8
31 -14 16 -22 16 -37 1z"/>
<path d="M3411 7022 c-8 -15 -6 -23 9 -37 18 -17 50 -15 50 3 0 5 -11 19 -24
31 -24 22 -24 23 -35 3z"/>
<path d="M3820 7025 c-10 -12 -10 -19 -2 -27 15 -15 43 8 35 28 -7 18 -17 18
-33 -1z"/>
<path d="M3911 7026 c-8 -9 -9 -21 -4 -30 7 -13 11 -13 28 0 17 13 18 16 4 30
-14 13 -17 13 -28 0z"/>
<path d="M3991 7016 c-9 -10 -8 -16 4 -26 21 -17 51 6 34 26 -6 8 -15 14 -19
14 -4 0 -13 -6 -19 -14z"/>
<path d="M4080 7016 c-10 -13 -10 -19 0 -32 12 -14 15 -14 29 0 14 15 14 17 0
32 -14 14 -17 14 -29 0z"/>
<path d="M4161 7006 c-17 -20 13 -43 34 -26 12 10 13 16 4 26 -6 8 -15 14 -19
14 -4 0 -13 -6 -19 -14z"/>
<path d="M4250 7005 c-10 -12 -10 -18 0 -31 11 -13 15 -13 27 -1 13 13 8 47
-7 47 -4 0 -13 -7 -20 -15z"/>
<path d="M3511 6996 c-9 -10 -8 -16 4 -26 21 -17 51 6 34 26 -6 8 -15 14 -19
14 -4 0 -13 -6 -19 -14z"/>
<path d="M3600 6996 c-10 -13 -10 -19 0 -32 12 -14 15 -14 29 0 14 15 14 17 0
32 -14 14 -17 14 -29 0z"/>
<path d="M3687 6992 c-16 -17 -16 -20 -2 -32 13 -11 19 -11 31 1 12 12 12 18
1 33 -12 16 -14 16 -30 -2z"/>
<path d="M4333 6994 c-9 -23 13 -40 32 -24 12 10 13 16 4 26 -15 18 -28 18
-36 -2z"/>
<path d="M4422 6998 c-8 -8 -8 -17 -1 -30 10 -19 12 -19 30 -2 14 13 16 20 8
31 -14 16 -22 16 -37 1z"/>
<path d="M4605 6990 c-24 -27 -8 -47 24 -31 24 14 26 24 8 40 -11 8 -18 6 -32
-9z"/>
<path d="M3770 6985 c-10 -12 -10 -18 0 -30 12 -14 15 -14 31 1 14 13 16 20 8
31 -15 17 -24 17 -39 -2z"/>
<path d="M3860 6986 c-10 -13 -10 -19 0 -32 12 -14 15 -14 29 0 14 15 14 17 0
32 -14 14 -17 14 -29 0z"/>
<path d="M4511 6986 c-8 -10 -8 -16 3 -25 10 -9 16 -8 26 3 12 15 6 36 -9 36
-5 0 -14 -6 -20 -14z"/>
<path d="M3380 6970 c-9 -16 -9 -25 1 -36 11 -13 14 -13 27 0 13 12 13 17 -1
36 l-15 22 -12 -22z"/>
<path d="M3941 6976 c-9 -10 -8 -16 4 -26 21 -17 51 6 34 26 -6 8 -15 14 -19
14 -4 0 -13 -6 -19 -14z"/>
<path d="M4031 6971 c-12 -8 -13 -12 -1 -26 12 -14 15 -14 28 -1 8 8 11 19 8
25 -9 13 -16 14 -35 2z"/>
<path d="M4116 6967 c-16 -12 -16 -14 -2 -26 19 -16 48 2 39 25 -6 17 -14 18
-37 1z"/>
<path d="M4207 6962 c-23 -25 -2 -48 25 -28 15 11 15 16 5 30 -12 16 -14 16
-30 -2z"/>
<path d="M3466 6957 c-16 -12 -17 -14 -1 -27 14 -11 18 -11 31 2 13 12 13 16
1 26 -10 9 -18 9 -31 -1z"/>
<path d="M3569 6965 c-1 -5 -1 -13 0 -17 0 -4 -6 -5 -14 -2 -19 8 -20 -10 -1
-25 20 -17 41 11 27 36 -6 10 -11 14 -12 8z"/>
<path d="M4292 6957 c-15 -17 1 -42 23 -33 18 6 17 37 -1 43 -6 2 -16 -2 -22
-10z"/>
<path d="M4381 6956 c-8 -9 -9 -21 -4 -30 7 -13 11 -13 28 0 17 13 18 16 4 30
-14 13 -17 13 -28 0z"/>
<path d="M3640 6945 c-20 -24 4 -45 26 -24 13 14 13 17 1 27 -11 10 -17 9 -27
-3z"/>
<path d="M3728 6946 c-14 -11 -15 -16 -5 -30 11 -15 14 -15 32 -2 18 13 18 16
5 30 -12 12 -18 13 -32 2z"/>
<path d="M4461 6946 c-9 -10 -8 -16 4 -26 21 -17 51 6 34 26 -6 8 -15 14 -19
14 -4 0 -13 -6 -19 -14z"/>
<path d="M4550 6946 c-10 -13 -10 -19 0 -32 12 -14 15 -14 29 0 14 15 14 17 0
32 -14 14 -17 14 -29 0z"/>
<path d="M4636 6942 c-15 -18 -15 -20 4 -37 19 -17 20 -17 30 10 17 44 -3 60
-34 27z"/>
<path d="M3812 6938 c-19 -19 5 -40 30 -27 15 8 17 13 7 25 -14 17 -21 18 -37
2z"/>
<path d="M3900 6936 c-10 -13 -10 -19 0 -32 12 -14 15 -14 29 0 14 15 14 17 0
32 -14 14 -17 14 -29 0z"/>
<path d="M3981 6926 c-9 -10 -8 -16 4 -26 21 -17 51 6 34 26 -6 8 -15 14 -19
14 -4 0 -13 -6 -19 -14z"/>
<path d="M4070 6926 c-10 -13 -10 -19 0 -32 12 -14 15 -14 29 0 14 15 14 17 0
32 -14 14 -17 14 -29 0z"/>
<path d="M3420 6916 c-10 -13 -10 -19 0 -32 12 -14 15 -14 29 0 14 15 14 17 0
32 -14 14 -17 14 -29 0z"/>
<path d="M3507 6912 c-16 -17 -16 -20 -2 -32 13 -11 19 -11 31 1 12 12 12 18
1 33 -12 16 -14 16 -30 -2z"/>
<path d="M4151 6916 c-9 -10 -8 -16 4 -26 21 -17 51 6 34 26 -6 8 -15 14 -19
14 -4 0 -13 -6 -19 -14z"/>
<path d="M4242 6918 c-8 -8 -8 -17 -1 -30 10 -19 12 -19 30 -2 14 13 16 20 8
31 -14 16 -22 16 -37 1z"/>
<path d="M3350 6899 c-11 -19 -10 -20 10 -9 11 6 18 15 15 21 -9 13 -13 11
-25 -12z"/>
<path d="M3591 6907 c-8 -10 -7 -18 2 -31 12 -16 14 -16 26 -2 14 16 9 46 -7
46 -5 0 -15 -6 -21 -13z"/>
<path d="M3681 6907 c-11 -15 -6 -47 9 -47 4 0 13 7 20 16 11 12 11 18 -2 30
-13 13 -16 13 -27 1z"/>
<path d="M4331 6911 c-12 -8 -13 -12 -1 -26 12 -14 15 -14 28 -1 8 8 11 19 8
25 -9 13 -16 14 -35 2z"/>
<path d="M4417 6905 c-15 -11 -16 -14 -2 -25 13 -11 19 -11 31 2 22 21 -3 42
-29 23z"/>
<path d="M3761 6896 c-9 -10 -8 -16 4 -26 21 -17 51 6 34 26 -6 8 -15 14 -19
14 -4 0 -13 -6 -19 -14z"/>
<path d="M4501 6901 c-12 -8 -12 -12 -2 -25 10 -12 17 -13 31 -3 14 8 16 15 8
24 -12 15 -18 16 -37 4z"/>
<path d="M4590 6894 c-11 -13 -10 -19 8 -36 17 -18 24 -19 36 -9 14 12 14 16
-2 37 -20 28 -25 29 -42 8z"/>
<path d="M3844 6889 c-3 -6 0 -17 8 -25 13 -13 16 -13 27 0 7 8 10 20 6 26 -8
13 -32 13 -41 -1z"/>
<path d="M3931 6886 c-9 -10 -8 -16 4 -26 21 -17 51 6 34 26 -6 8 -15 14 -19
14 -4 0 -13 -6 -19 -14z"/>
<path d="M4026 6882 c-12 -14 -13 -21 -4 -30 13 -13 38 2 38 24 0 22 -16 25
-34 6z"/>
<path d="M3370 6875 c-10 -12 -10 -18 0 -31 11 -13 15 -13 27 -1 13 13 8 47
-7 47 -4 0 -13 -7 -20 -15z"/>
<path d="M4113 6879 c-11 -11 -7 -39 6 -39 17 1 31 18 25 33 -7 20 -16 21 -31
6z"/>
<path d="M4201 6876 c-8 -9 -9 -21 -4 -31 8 -13 11 -13 28 -1 18 14 19 16 4
31 -14 14 -17 14 -28 1z"/>
<path d="M3460 6865 c-10 -12 -10 -19 -2 -27 15 -15 48 14 38 31 -10 15 -21
14 -36 -4z"/>
<path d="M3551 6866 c-8 -9 -9 -21 -4 -30 7 -13 11 -13 28 0 17 13 18 16 4 30
-14 13 -17 13 -28 0z"/>
<path d="M4281 6866 c-9 -10 -8 -16 4 -26 21 -17 51 6 34 26 -6 8 -15 14 -19
14 -4 0 -13 -6 -19 -14z"/>
<path d="M4370 6866 c-10 -13 -10 -19 0 -32 12 -14 15 -14 29 0 14 15 14 17 0
32 -14 14 -17 14 -29 0z"/>
<path d="M3631 6856 c-17 -20 8 -39 31 -22 13 10 15 15 6 24 -15 15 -23 15
-37 -2z"/>
<path d="M3720 6855 c-16 -20 -1 -38 23 -29 21 8 22 18 3 33 -10 9 -16 8 -26
-4z"/>
<path d="M4451 6856 c-9 -10 -8 -16 4 -26 21 -17 51 6 34 26 -6 8 -15 14 -19
14 -4 0 -13 -6 -19 -14z"/>
<path d="M4540 6854 c-11 -13 -10 -19 8 -36 17 -18 24 -19 36 -9 14 12 14 16
-2 37 -20 28 -25 29 -42 8z"/>
<path d="M3801 6846 c-9 -10 -8 -16 4 -26 21 -17 51 6 34 26 -6 8 -15 14 -19
14 -4 0 -13 -6 -19 -14z"/>
<path d="M3890 6845 c-10 -12 -10 -18 0 -31 11 -13 15 -13 27 -1 13 13 8 47
-7 47 -4 0 -13 -7 -20 -15z"/>
<path d="M3981 6846 c-14 -16 -9 -46 7 -46 21 0 32 26 19 44 -12 16 -14 16
-26 2z"/>
<path d="M3330 6835 c-13 -15 -7 -45 8 -45 21 0 30 25 17 43 -11 15 -14 15
-25 2z"/>
<path d="M4061 6836 c-9 -10 -8 -16 4 -26 19 -16 41 1 32 24 -8 20 -21 20 -36
2z"/>
<path d="M4150 6836 c-10 -13 -10 -19 0 -32 12 -14 15 -14 29 0 14 15 14 17 0
32 -14 14 -17 14 -29 0z"/>
<path d="M3411 6827 c-8 -10 -7 -18 2 -31 11 -16 15 -16 25 -3 12 14 7 47 -8
47 -4 0 -13 -6 -19 -13z"/>
<path d="M3501 6827 c-11 -15 -6 -47 9 -47 4 0 13 7 20 16 11 12 11 18 -2 30
-13 13 -16 13 -27 1z"/>
<path d="M4237 6825 c-15 -11 -16 -14 -2 -25 13 -11 19 -11 31 2 22 21 -3 42
-29 23z"/>
<path d="M3581 6816 c-9 -10 -8 -16 4 -26 21 -17 51 6 34 26 -6 8 -15 14 -19
14 -4 0 -13 -6 -19 -14z"/>
<path d="M4321 6821 c-12 -8 -12 -12 -2 -25 10 -12 17 -13 31 -3 14 8 16 15 8
24 -12 15 -18 16 -37 4z"/>
<path d="M4410 6815 c-20 -24 4 -45 26 -24 13 14 13 17 1 27 -11 10 -17 9 -27
-3z"/>
<path d="M4501 6817 c-16 -16 -14 -31 8 -51 16 -15 20 -15 31 -2 16 21 -20 72
-39 53z"/>
<path d="M3664 6809 c-3 -6 0 -17 8 -25 13 -13 16 -13 27 0 7 8 10 20 6 26 -8
13 -32 13 -41 -1z"/>
<path d="M3751 6806 c-9 -10 -8 -16 4 -26 21 -17 51 6 34 26 -6 8 -15 14 -19
14 -4 0 -13 -6 -19 -14z"/>
<path d="M3845 6806 c-18 -14 -19 -16 -4 -31 14 -14 17 -14 28 -1 8 9 9 21 4
31 -8 13 -11 13 -28 1z"/>
<path d="M3930 6795 c-10 -12 -10 -19 -2 -27 15 -15 48 14 38 31 -10 15 -21
14 -36 -4z"/>
<path d="M4021 6796 c-8 -10 -9 -21 -4 -31 8 -14 11 -14 26 3 15 16 15 21 4
31 -11 9 -17 8 -26 -3z"/>
<path d="M4596 6791 c-14 -15 -14 -20 -3 -29 11 -9 16 -7 25 13 14 30 0 41
-22 16z"/>
<path d="M3368 6786 c-15 -11 -15 -16 -5 -30 12 -16 14 -16 30 2 23 25 2 48
-25 28z"/>
<path d="M4102 6788 c-19 -19 5 -40 30 -27 15 8 17 13 7 25 -14 17 -21 18 -37
2z"/>
<path d="M4191 6786 c-14 -17 -7 -36 14 -36 22 0 29 20 13 36 -13 13 -16 13
-27 0z"/>
<path d="M4276 6781 c-15 -16 -15 -19 -1 -31 13 -11 18 -11 30 1 11 11 11 17
1 31 -12 17 -14 17 -30 -1z"/>
<path d="M3297 6769 c-4 -16 -3 -18 9 -8 16 13 19 29 5 29 -5 0 -11 -9 -14
-21z"/>
<path d="M3451 6781 c-12 -8 -13 -12 -1 -26 12 -14 15 -14 28 -1 8 8 11 19 8
25 -9 13 -16 14 -35 2z"/>
<path d="M3541 6776 c-8 -9 -9 -21 -4 -30 7 -13 11 -13 28 0 17 13 18 16 4 30
-14 13 -17 13 -28 0z"/>
<path d="M4360 6775 c-10 -12 -10 -18 0 -31 11 -13 15 -13 27 -1 13 13 8 47
-7 47 -4 0 -13 -7 -20 -15z"/>
<path d="M3621 6766 c-9 -10 -8 -16 4 -26 21 -17 51 6 34 26 -6 8 -15 14 -19
14 -4 0 -13 -6 -19 -14z"/>
<path d="M3710 6765 c-13 -16 -6 -35 15 -35 18 0 26 15 19 34 -8 20 -18 20
-34 1z"/>
<path d="M3800 6765 c-13 -15 -7 -45 8 -45 21 0 30 25 17 43 -11 15 -14 15
-25 2z"/>
<path d="M4443 6765 c-3 -9 2 -24 12 -35 14 -15 21 -17 35 -8 16 11 17 14 3
35 -18 26 -41 30 -50 8z"/>
<path d="M3881 6757 c-8 -10 -7 -18 2 -31 12 -16 14 -16 26 -2 14 16 9 46 -7
46 -5 0 -15 -6 -21 -13z"/>
<path d="M3971 6757 c-11 -15 -6 -47 9 -47 4 0 13 7 20 16 11 12 11 18 -2 30
-13 13 -16 13 -27 1z"/>
<path d="M3310 6735 c-21 -23 -22 -27 -9 -40 13 -14 18 -13 39 10 21 23 22 27
9 40 -13 14 -18 13 -39 -10z"/>
<path d="M4059 6746 c-14 -10 -15 -15 -4 -29 11 -16 13 -16 29 2 22 24 1 47
-25 27z"/>
<path d="M4553 6753 c-18 -7 -16 -28 3 -44 13 -10 17 -10 25 2 18 28 1 54 -28
42z"/>
<path d="M3401 6736 c-9 -10 -8 -16 4 -26 21 -17 51 6 34 26 -6 8 -15 14 -19
14 -4 0 -13 -6 -19 -14z"/>
<path d="M3492 6734 c-11 -12 -11 -18 -1 -30 11 -13 14 -13 28 0 13 14 13 18
1 30 -13 13 -17 12 -28 0z"/>
<path d="M4155 6740 c3 -6 -1 -7 -9 -4 -19 7 -21 -9 -3 -24 18 -15 51 10 35
26 -15 15 -32 16 -23 2z"/>
<path d="M4226 6737 c-16 -12 -17 -14 -1 -27 14 -11 18 -11 31 2 13 12 13 16
1 26 -10 9 -18 9 -31 -1z"/>
<path d="M4317 6732 c-23 -25 -2 -48 25 -28 15 11 15 16 5 30 -12 16 -14 16
-30 -2z"/>
<path d="M3571 6726 c-9 -10 -8 -16 4 -26 21 -17 51 6 34 26 -6 8 -15 14 -19
14 -4 0 -13 -6 -19 -14z"/>
<path d="M3665 6724 c-17 -13 -18 -16 -4 -30 14 -13 17 -13 28 0 8 9 9 21 4
30 -7 13 -11 13 -28 0z"/>
<path d="M4402 6727 c-8 -9 -5 -19 8 -37 15 -20 21 -22 34 -11 14 12 14 15 -1
37 -17 27 -26 30 -41 11z"/>
<path d="M3750 6715 c-10 -12 -10 -19 -2 -27 15 -15 43 8 35 28 -7 18 -17 18
-33 -1z"/>
<path d="M3841 6716 c-8 -10 -9 -21 -4 -31 8 -14 11 -14 26 3 15 16 15 21 4
31 -11 9 -17 8 -26 -3z"/>
<path d="M3921 6706 c-17 -20 8 -39 31 -22 13 10 15 15 6 24 -15 15 -23 15
-37 -2z"/>
<path d="M4010 6706 c-10 -13 -10 -19 0 -32 12 -14 15 -14 29 0 14 15 14 17 0
32 -14 14 -17 14 -29 0z"/>
<path d="M4500 6705 c-11 -13 -9 -20 10 -40 21 -23 24 -23 35 -8 10 14 10 22
-2 40 -18 27 -26 28 -43 8z"/>
<path d="M3347 6686 c-24 -20 -26 -24 -13 -35 12 -10 20 -9 40 6 29 21 31 27
14 41 -9 7 -21 4 -41 -12z"/>
<path d="M4091 6696 c-9 -10 -8 -16 4 -26 21 -17 51 6 34 26 -6 8 -15 14 -19
14 -4 0 -13 -6 -19 -14z"/>
<path d="M4180 6696 c-10 -13 -10 -19 0 -32 12 -14 15 -14 29 0 14 15 14 17 0
32 -14 14 -17 14 -29 0z"/>
<path d="M4271 6696 c-14 -16 -9 -46 7 -46 21 0 32 26 19 44 -12 16 -14 16
-26 2z"/>
<path d="M3441 6686 c-9 -10 -8 -16 4 -26 21 -17 51 6 34 26 -6 8 -15 14 -19
14 -4 0 -13 -6 -19 -14z"/>
<path d="M3530 6685 c-16 -20 -1 -38 23 -29 21 8 22 18 3 33 -10 9 -16 8 -26
-4z"/>
<path d="M3616 6681 c-15 -16 -15 -19 -1 -31 13 -11 18 -11 30 1 11 11 11 17
1 31 -12 17 -14 17 -30 -1z"/>
<path d="M4352 6687 c-8 -9 -5 -19 8 -37 17 -22 21 -23 34 -10 14 14 14 18 0
38 -17 25 -27 27 -42 9z"/>
<path d="M3702 6678 c-8 -8 -8 -17 -1 -30 10 -19 12 -19 30 -2 14 13 16 20 8
31 -14 16 -22 16 -37 1z"/>
<path d="M3791 6677 c-11 -15 -6 -47 9 -47 4 0 13 7 20 16 11 12 11 18 -2 30
-13 13 -16 13 -27 1z"/>
<path d="M3276 6663 c-6 -14 -5 -15 5 -6 7 7 10 15 7 18 -3 3 -9 -2 -12 -12z"/>
<path d="M3871 6666 c-9 -10 -8 -16 4 -26 21 -17 51 6 34 26 -6 8 -15 14 -19
14 -4 0 -13 -6 -19 -14z"/>
<path d="M3960 6666 c-10 -13 -10 -19 0 -32 12 -14 15 -14 29 0 14 15 14 17 0
32 -14 14 -17 14 -29 0z"/>
<path d="M4458 6666 c-16 -12 -15 -15 11 -46 27 -32 29 -33 39 -15 8 16 6 26
-11 47 -19 23 -25 25 -39 14z"/>
<path d="M4046 6657 c-16 -12 -17 -14 -1 -27 14 -11 18 -11 31 2 13 12 13 16
1 26 -10 9 -18 9 -31 -1z"/>
<path d="M4135 6654 c-17 -12 -17 -16 -5 -28 12 -12 18 -12 32 -2 14 10 15 16
5 29 -11 14 -14 14 -32 1z"/>
<path d="M3386 6641 c-9 -10 -14 -25 -10 -35 8 -22 16 -20 42 7 17 18 19 26
10 35 -16 16 -22 15 -42 -7z"/>
<path d="M3485 6646 c-18 -14 -19 -16 -4 -31 14 -14 17 -14 28 -1 8 9 9 21 4
31 -8 13 -11 13 -28 1z"/>
<path d="M4222 6647 c-15 -17 0 -39 22 -31 18 7 18 35 0 41 -6 2 -16 -2 -22
-10z"/>
<path d="M4311 6647 c-18 -22 14 -73 35 -56 18 15 18 22 -4 49 -16 20 -19 20
-31 7z"/>
<path d="M3286 6631 c-10 -11 -16 -30 -14 -42 l3 -22 28 24 c20 17 26 29 22
42 -9 22 -18 22 -39 -2z"/>
<path d="M3566 6637 c-16 -12 -16 -14 -2 -26 19 -16 48 2 39 25 -6 17 -14 18
-37 1z"/>
<path d="M3652 6637 c-7 -8 -7 -17 2 -29 12 -17 14 -17 29 0 13 14 14 21 5 30
-15 15 -23 15 -36 -1z"/>
<path d="M3741 6626 c-8 -10 -8 -16 3 -25 10 -9 16 -8 26 3 12 15 6 36 -9 36
-5 0 -14 -6 -20 -14z"/>
<path d="M3830 6626 c-10 -13 -10 -19 0 -32 12 -14 15 -14 29 0 14 15 14 17 0
32 -14 14 -17 14 -29 0z"/>
<path d="M4411 6627 c-14 -17 -4 -43 24 -67 13 -11 18 -11 30 1 12 12 10 19
-14 47 -24 30 -29 32 -40 19z"/>
<path d="M3912 6618 c-19 -19 5 -40 30 -27 15 8 17 13 7 25 -14 17 -21 18 -37
2z"/>
<path d="M4000 6616 c-10 -13 -10 -19 0 -32 12 -14 15 -14 29 0 14 15 14 17 0
32 -14 14 -17 14 -29 0z"/>
<path d="M4087 6612 c-16 -17 -16 -20 -2 -32 13 -11 19 -11 31 1 12 12 12 18
1 33 -12 16 -14 16 -30 -2z"/>
<path d="M3431 6596 c-16 -17 -20 -29 -14 -39 7 -13 12 -12 35 6 23 19 25 24
14 39 -12 16 -14 16 -35 -6z"/>
<path d="M4172 6608 c-8 -8 -8 -17 -1 -30 10 -19 12 -19 30 -2 14 13 16 20 8
31 -14 16 -22 16 -37 1z"/>
<path d="M4261 6606 c-10 -12 -9 -20 4 -40 14 -21 20 -23 35 -14 20 13 15 33
-13 56 -11 10 -17 9 -26 -2z"/>
<path d="M3523 6599 c-14 -14 -6 -39 12 -39 18 0 26 15 19 34 -7 19 -16 20
-31 5z"/>
<path d="M3611 6597 c-11 -15 -6 -47 9 -47 4 0 13 7 20 16 11 12 11 18 -2 30
-13 13 -16 13 -27 1z"/>
<path d="M3307 6569 c-24 -20 -37 -39 -37 -55 0 -13 4 -24 8 -24 16 0 94 88
88 99 -11 16 -18 14 -59 -20z"/>
<path d="M3691 6586 c-9 -10 -8 -16 4 -26 21 -17 51 6 34 26 -6 8 -15 14 -19
14 -4 0 -13 -6 -19 -14z"/>
<path d="M3780 6586 c-10 -13 -10 -19 0 -32 12 -14 15 -14 29 0 14 15 14 17 0
32 -14 14 -17 14 -29 0z"/>
<path d="M3861 6576 c-17 -20 13 -43 34 -26 12 10 13 16 4 26 -6 8 -15 14 -19
14 -4 0 -13 -6 -19 -14z"/>
<path d="M3955 6574 c-17 -13 -18 -16 -4 -30 14 -13 17 -13 28 0 8 9 9 21 4
30 -7 13 -11 13 -28 0z"/>
<path d="M4361 6576 c-9 -11 -6 -21 15 -46 24 -28 29 -30 42 -17 13 14 12 19
-7 46 -25 35 -33 37 -50 17z"/>
<path d="M4041 6571 c-14 -9 -9 -41 7 -41 15 0 34 28 27 40 -8 12 -16 13 -34
1z"/>
<path d="M4129 6566 c-14 -10 -15 -15 -4 -29 11 -16 13 -16 29 2 22 24 1 47
-25 27z"/>
<path d="M3466 6549 c-25 -20 -26 -23 -12 -38 15 -14 18 -13 42 10 21 22 23
27 11 37 -11 10 -20 8 -41 -9z"/>
<path d="M4212 6558 c-7 -9 -5 -20 9 -37 18 -23 21 -23 36 -8 15 15 15 18 -2
37 -21 23 -29 25 -43 8z"/>
<path d="M3332 6512 c-33 -31 -52 -55 -52 -69 0 -13 3 -23 8 -23 4 1 34 25 67
55 53 48 58 56 45 69 -13 13 -21 9 -68 -32z"/>
<path d="M3561 6546 c-8 -10 -8 -16 3 -25 10 -9 16 -8 26 3 12 15 6 36 -9 36
-5 0 -14 -6 -20 -14z"/>
<path d="M3650 6545 c-20 -24 4 -45 26 -24 13 14 13 17 1 27 -11 10 -17 9 -27
-3z"/>
<path d="M3731 6536 c-17 -20 8 -39 31 -22 13 10 15 15 6 24 -15 15 -23 15
-37 -2z"/>
<path d="M3820 6536 c-10 -13 -10 -19 0 -32 12 -14 15 -14 29 0 14 15 14 17 0
32 -14 14 -17 14 -29 0z"/>
<path d="M3911 6536 c-14 -16 -9 -46 7 -46 21 0 32 26 19 44 -12 16 -14 16
-26 2z"/>
<path d="M4311 6537 c-8 -10 -4 -22 18 -47 25 -30 31 -33 44 -21 15 12 14 16
-9 47 -29 37 -36 40 -53 21z"/>
<path d="M3991 6526 c-9 -10 -8 -16 4 -26 21 -17 51 6 34 26 -6 8 -15 14 -19
14 -4 0 -13 -6 -19 -14z"/>
<path d="M4080 6526 c-10 -13 -10 -19 0 -32 12 -14 15 -14 29 0 14 15 14 17 0
32 -14 14 -17 14 -29 0z"/>
<path d="M4161 6517 c-8 -11 -5 -19 13 -36 20 -19 24 -20 36 -6 11 13 10 19
-5 35 -21 24 -29 25 -44 7z"/>
<path d="M3501 6497 c-18 -20 -19 -26 -8 -36 21 -17 73 25 56 45 -16 19 -22
18 -48 -9z"/>
<path d="M3600 6506 c-10 -13 -10 -19 0 -32 12 -14 15 -14 29 0 14 15 14 17 0
32 -14 14 -17 14 -29 0z"/>
<path d="M3362 6454 c-35 -32 -62 -64 -62 -75 0 -30 14 -23 82 38 35 32 65 59
67 60 3 2 -2 10 -10 18 -12 13 -22 8 -77 -41z"/>
<path d="M3686 6497 c-16 -12 -17 -14 -1 -27 14 -11 18 -11 31 2 13 12 13 16
1 26 -10 9 -18 9 -31 -1z"/>
<path d="M3770 6495 c-10 -12 -10 -18 0 -31 11 -13 15 -13 27 -1 13 13 8 47
-7 47 -4 0 -13 -7 -20 -15z"/>
<path d="M3861 6496 c-14 -16 -9 -46 7 -46 5 0 15 7 22 16 11 12 11 18 -2 30
-13 13 -16 13 -27 0z"/>
<path d="M4271 6497 c-14 -17 -4 -43 24 -67 13 -11 18 -11 31 2 14 14 13 19
-13 48 -25 28 -30 30 -42 17z"/>
<path d="M3949 6486 c-15 -10 -15 -14 -3 -31 13 -17 19 -14 15 8 -1 5 3 6 8 3
15 -10 22 10 8 22 -8 7 -17 7 -28 -2z"/>
<path d="M4031 6476 c-17 -20 8 -39 31 -22 13 10 15 15 6 24 -15 15 -23 15
-37 -2z"/>
<path d="M4120 6475 c-11 -14 -10 -19 8 -38 20 -19 24 -20 37 -6 14 14 13 17
-8 37 -22 20 -25 21 -37 7z"/>
<path d="M3544 6451 c-17 -13 -19 -22 -12 -35 9 -16 11 -16 29 0 10 9 16 21
13 25 -3 5 3 6 13 2 16 -6 16 -5 4 10 -17 21 -21 21 -47 -2z"/>
<path d="M3640 6456 c-10 -13 -10 -19 0 -31 11 -13 14 -13 27 1 14 14 14 17 1
30 -13 13 -16 13 -28 0z"/>
<path d="M3726 6451 c-15 -16 -15 -19 -1 -31 13 -11 18 -11 30 1 11 11 11 17
1 31 -12 17 -14 17 -30 -1z"/>
<path d="M4221 6456 c-11 -13 -9 -20 9 -46 24 -34 32 -36 49 -16 10 12 6 21
-16 46 -26 29 -30 30 -42 16z"/>
<path d="M3387 6397 c-51 -46 -67 -67 -62 -80 4 -9 9 -17 12 -17 3 0 38 30 79
66 59 53 72 69 63 80 -6 8 -14 14 -18 14 -3 -1 -37 -29 -74 -63z"/>
<path d="M3811 6446 c-9 -10 -8 -16 4 -26 19 -16 41 1 32 24 -8 20 -21 20 -36
2z"/>
<path d="M3900 6446 c-10 -13 -10 -19 0 -32 12 -14 15 -14 29 0 14 15 14 17 0
32 -14 14 -17 14 -29 0z"/>
<path d="M3981 6436 c-9 -10 -8 -16 4 -26 21 -17 51 6 34 26 -6 8 -15 14 -19
14 -4 0 -13 -6 -19 -14z"/>
<path d="M4070 6435 c-11 -14 -10 -19 8 -38 20 -19 24 -20 37 -6 14 14 13 17
-8 37 -22 20 -25 21 -37 7z"/>
<path d="M3581 6407 c-20 -22 -20 -25 -6 -37 14 -11 19 -10 36 6 12 13 17 27
13 37 -8 23 -16 21 -43 -6z"/>
<path d="M3426 6347 c-69 -63 -77 -74 -63 -85 14 -12 25 -5 84 49 37 34 71 65
76 69 4 3 1 14 -5 23 -12 15 -21 9 -92 -56z"/>
<path d="M3673 6404 c-3 -8 -1 -20 6 -27 14 -14 47 15 37 32 -10 16 -36 13
-43 -5z"/>
<path d="M3767 6407 c-13 -10 -14 -15 -3 -29 12 -17 14 -17 30 1 14 15 14 20
3 29 -10 9 -18 9 -30 -1z"/>
<path d="M4172 6408 c-7 -9 -4 -21 12 -41 20 -25 24 -26 41 -13 20 14 20 15
-4 40 -28 29 -34 31 -49 14z"/>
<path d="M3851 6401 c-12 -8 -13 -12 -1 -26 12 -14 15 -14 28 -1 8 8 11 19 8
25 -9 13 -16 14 -35 2z"/>
<path d="M3937 6395 c-15 -11 -16 -14 -2 -25 13 -11 19 -11 31 2 22 21 -3 42
-29 23z"/>
<path d="M3172 6325 c-18 -42 -30 -80 -26 -87 4 -6 3 -8 -4 -4 -6 3 -13 -2
-17 -12 -3 -11 -37 -72 -75 -137 -39 -64 -70 -119 -70 -121 0 -1 26 9 58 24
31 14 131 52 221 83 152 52 163 57 142 69 -54 28 -115 97 -147 165 -19 38 -34
75 -34 82 0 30 -17 8 -48 -62z"/>
<path d="M4021 6387 c-8 -11 -5 -19 13 -36 20 -19 24 -20 36 -6 11 13 10 19
-5 35 -21 24 -29 25 -44 7z"/>
<path d="M3621 6357 c-17 -19 -19 -26 -9 -35 17 -14 63 22 54 43 -8 21 -19 19
-45 -8z"/>
<path d="M3722 6368 c-14 -14 -16 -32 -2 -23 6 3 7 -1 4 -9 -8 -21 10 -21 26
0 18 21 -9 51 -28 32z"/>
<path d="M4121 6367 c-8 -11 -5 -19 14 -37 20 -19 27 -21 40 -10 14 12 13 15
-6 37 -26 27 -32 28 -48 10z"/>
<path d="M3474 6309 c-38 -34 -72 -64 -76 -68 -4 -4 1 -12 11 -18 16 -10 28
-3 91 55 61 57 70 69 58 79 -12 10 -27 2 -84 -48z"/>
<path d="M3801 6356 c-9 -10 -8 -16 4 -26 21 -17 51 6 34 26 -6 8 -15 14 -19
14 -4 0 -13 -6 -19 -14z"/>
<path d="M3890 6356 c-10 -13 -10 -19 0 -32 12 -14 15 -14 29 0 14 15 14 17 0
32 -14 14 -17 14 -29 0z"/>
<path d="M3971 6347 c-8 -11 -5 -19 13 -36 20 -19 24 -20 36 -6 11 13 10 19
-5 35 -21 24 -29 25 -44 7z"/>
<path d="M4080 6325 c-11 -14 -10 -19 6 -35 16 -16 22 -17 36 -6 16 12 16 14
-6 35 -21 20 -24 20 -36 6z"/>
<path d="M3659 6311 c-22 -18 -23 -21 -8 -36 14 -14 17 -13 38 9 13 14 20 29
16 35 -9 16 -20 14 -46 -8z"/>
<path d="M3757 6315 c-15 -11 -16 -14 -2 -25 13 -11 19 -11 31 2 22 21 -3 42
-29 23z"/>
<path d="M3512 6262 c-59 -54 -68 -72 -35 -72 8 0 41 23 74 51 46 41 57 55 48
65 -6 8 -14 14 -18 14 -3 -1 -34 -27 -69 -58z"/>
<path d="M3841 6306 c-17 -20 8 -39 31 -22 13 10 15 15 6 24 -15 15 -23 15
-37 -2z"/>
<path d="M3930 6305 c-11 -14 -10 -19 8 -38 20 -19 24 -20 37 -6 14 14 13 17
-8 37 -22 20 -25 21 -37 7z"/>
<path d="M4030 6285 c-19 -22 5 -48 31 -34 16 8 17 13 6 29 -14 24 -21 25 -37
5z"/>
<path d="M4365 6290 c-3 -6 1 -7 9 -4 18 7 21 14 7 14 -6 0 -13 -4 -16 -10z"/>
<path d="M3700 6265 c-21 -23 -22 -27 -9 -40 13 -14 18 -13 39 10 21 23 22 27
9 40 -13 14 -18 13 -39 -10z"/>
<path d="M3571 6231 c-29 -25 -49 -50 -45 -54 15 -15 38 -6 79 32 33 31 39 41
31 54 -10 13 -19 8 -65 -32z"/>
<path d="M3791 6266 c-9 -10 -8 -16 4 -26 21 -17 51 6 34 26 -6 8 -15 14 -19
14 -4 0 -13 -6 -19 -14z"/>
<path d="M3880 6265 c-10 -13 -10 -19 5 -35 20 -22 24 -23 44 -11 11 7 10 13
-4 35 -20 30 -28 32 -45 11z"/>
<path d="M3986 6241 c-20 -22 -7 -36 17 -18 10 7 13 17 9 25 -7 10 -13 8 -26
-7z"/>
<path d="M4311 6234 c0 -11 3 -14 6 -6 3 7 2 16 -1 19 -3 4 -6 -2 -5 -13z"/>
<path d="M3742 6221 c-20 -17 -22 -52 -3 -51 18 1 50 40 45 54 -8 20 -14 20
-42 -3z"/>
<path d="M3843 6229 c-25 -25 -6 -61 28 -52 24 7 24 15 2 42 -15 18 -20 20
-30 10z"/>
<path d="M3623 6196 l-38 -35 31 -1 c41 0 82 41 60 59 -12 10 -22 6 -53 -23z"/>
<path d="M3945 6210 c-3 -5 -1 -10 4 -10 6 0 11 5 11 10 0 6 -2 10 -4 10 -3 0
-8 -4 -11 -10z"/>
<path d="M3784 6179 c-18 -20 -18 -20 11 -13 38 9 38 9 22 23 -11 8 -18 6 -33
-10z"/>
<path d="M3685 6170 c-3 -5 3 -10 15 -10 12 0 18 5 15 10 -3 6 -10 10 -15 10
-5 0 -12 -4 -15 -10z"/>
<path d="M3237 5893 c-3 -5 5 -8 18 -8 13 0 21 3 18 8 -2 4 -10 7 -18 7 -8 0
-16 -3 -18 -7z"/>
<path d="M2700 5489 c0 -5 5 -7 10 -4 6 3 10 8 10 11 0 2 -4 4 -10 4 -5 0 -10
-5 -10 -11z"/>
<path d="M3980 620 c-12 -23 -20 -43 -18 -45 2 -1 18 -5 37 -9 l34 -6 -7 42
c-10 62 -21 66 -46 18z"/>
</g>
</svg>
