<?xml version="1.0" standalone="no"?>
<!DOCTYPE svg PUBLIC "-//W3C//DTD SVG 20010904//EN"
 "http://www.w3.org/TR/2001/REC-SVG-20010904/DTD/svg10.dtd">
<svg version="1.0" xmlns="http://www.w3.org/2000/svg"
 width="307.000000pt" height="320.000000pt" viewBox="0 0 307.000000 320.000000"
 preserveAspectRatio="xMidYMid meet">

<g transform="translate(0.000000,320.000000) scale(0.100000,-0.100000)"
fill="#000000" stroke="none">
<path d="M1280 3185 c-182 -26 -324 -68 -488 -146 -523 -247 -809 -704 -753
-1202 32 -291 123 -494 305 -685 206 -215 456 -333 768 -364 384 -37 727 132
920 454 46 78 94 197 104 257 6 41 6 41 -24 41 -17 0 -37 2 -44 5 -11 5 -18
-12 -28 -66 -12 -65 -16 -72 -43 -81 -21 -8 -25 -13 -15 -19 10 -7 10 -9 -2
-9 -9 0 -22 6 -29 13 -11 10 -14 10 -18 0 -3 -7 -19 -13 -36 -12 -27 0 -29 2
-12 9 15 6 11 7 -17 7 -20 -1 -35 -4 -32 -8 2 -4 -8 -10 -23 -12 -16 -2 20 -5
80 -6 59 0 107 -4 107 -7 0 -17 -85 -165 -117 -205 -61 -75 -95 -93 -180 -98
-95 -4 -175 11 -288 56 -88 35 -250 128 -274 157 -10 12 -8 23 9 56 12 23 18
49 15 58 -14 35 -132 -239 -150 -347 l-7 -44 -81 6 c-91 7 -205 41 -214 64
-10 25 16 153 53 263 19 58 64 161 100 229 41 80 64 134 62 150 -3 22 -11 13
-50 -57 -91 -159 -156 -326 -193 -489 -10 -46 -23 -83 -27 -83 -5 0 -32 21
-60 48 -121 113 -146 274 -76 502 66 214 234 453 418 592 36 28 111 72 168
100 120 59 125 58 225 -25 l58 -49 -140 -134 c-77 -74 -167 -170 -200 -212
-116 -148 -114 -144 -81 -139 11 2 28 14 37 28 62 89 217 255 326 346 63 53
81 63 88 52 41 -61 67 -115 96 -198 42 -121 42 -141 2 -170 -17 -13 -65 -55
-105 -94 -56 -53 -74 -76 -74 -96 1 -24 6 -20 68 44 37 39 92 87 123 108 l57
38 65 -36 c48 -27 72 -34 91 -29 14 3 26 9 26 13 0 3 -37 25 -83 48 l-82 42
-23 73 c-54 169 -119 284 -209 369 -103 99 -219 143 -375 144 -49 0 -88 3 -88
6 0 22 94 51 201 64 109 13 275 -27 383 -92 205 -125 339 -317 391 -566 21
-95 19 -124 -6 -138 -17 -9 -19 -13 -8 -20 8 -5 22 -9 32 -9 28 0 23 126 -8
235 -71 246 -200 417 -397 528 -46 26 -80 47 -77 47 20 0 124 -37 174 -62 238
-119 409 -348 449 -598 l12 -75 38 0 37 0 -45 -42 c-25 -24 -41 -43 -35 -43 5
0 9 -9 9 -20 0 -22 74 -109 84 -99 4 3 9 36 13 73 3 36 9 66 14 66 17 0 82
-89 114 -155 50 -104 67 -183 67 -311 1 -464 -376 -839 -923 -920 -306 -45
-664 43 -924 227 l-70 50 60 -55 c159 -148 397 -262 629 -301 169 -29 406 -16
566 31 363 106 678 347 842 645 43 76 96 219 119 319 29 124 31 343 4 470 -41
201 -115 342 -245 470 -94 93 -159 136 -283 187 -92 37 -93 40 -4 17 138 -35
280 -120 389 -231 114 -114 186 -239 229 -393 21 -75 23 -107 24 -265 0 -193
-11 -266 -61 -422 -67 -205 -170 -370 -339 -538 -210 -211 -425 -327 -726
-392 -120 -26 -453 -26 -594 1 -399 74 -696 264 -948 606 l-19 25 16 -28 c84
-146 204 -283 346 -396 273 -217 594 -321 989 -321 499 0 898 162 1206 488
300 317 465 798 426 1240 -34 382 -161 673 -399 915 -210 214 -468 340 -798
391 -278 43 -535 3 -789 -125 -381 -190 -665 -553 -749 -954 -10 -44 -19 -91
-22 -104 -8 -37 -13 -22 -24 77 -18 163 14 348 90 509 157 335 505 604 929
717 142 38 138 43 -19 21z m527 -386 c87 -12 239 -59 293 -90 l35 -20 -35 6
c-195 33 -363 32 -500 -4 -84 -22 -240 -89 -270 -115 -10 -10 -51 -15 -133
-18 -64 -1 -117 0 -117 3 0 3 34 31 76 63 197 146 421 207 651 175z m323 -172
c189 -49 341 -135 470 -267 137 -139 215 -292 254 -500 23 -120 20 -179 -4
-75 -88 378 -337 631 -711 722 -111 27 -339 24 -434 -6 -38 -13 -77 -23 -85
-23 -8 0 -59 16 -113 35 -77 27 -95 36 -84 45 25 21 122 59 192 75 39 9 79 18
90 21 11 3 90 3 175 2 125 -3 173 -9 250 -29z m-1270 -201 c0 -3 -42 -36 -94
-75 -139 -105 -219 -197 -298 -346 -42 -78 -50 -70 -14 16 55 136 169 265 315
361 67 44 91 55 91 44z m269 -32 c17 -4 31 -9 31 -13 0 -4 -30 -22 -67 -40
-237 -116 -458 -362 -563 -627 -38 -95 -69 -230 -70 -301 0 -113 -36 -44 -61
117 -35 233 75 505 287 711 91 87 150 128 214 145 49 14 178 18 229 8z m925
-955 c-4 -7 3 -19 16 -29 13 -10 20 -22 16 -29 -8 -13 -46 -15 -46 -2 0 5 9 7
20 4 11 -3 20 -1 20 5 0 6 -9 14 -20 17 -20 6 -26 25 -13 38 10 11 15 8 7 -4z
m-34 -53 c0 -3 -4 -8 -10 -11 -5 -3 -10 -1 -10 4 0 6 5 11 10 11 6 0 10 -2 10
-4z m-653 -288 c90 -42 213 -77 277 -79 23 -1 52 -4 66 -8 24 -7 23 -8 -23
-40 -27 -18 -78 -46 -115 -63 -55 -25 -79 -30 -147 -31 -90 0 -155 15 -288 70
l-89 36 7 44 c9 59 31 145 49 188 l15 35 83 -57 c46 -31 120 -74 165 -95z
m-567 -118 c25 -5 88 -14 140 -19 63 -7 115 -19 153 -36 60 -26 192 -63 240
-67 15 -1 27 -6 27 -10 0 -4 -57 -8 -127 -8 -184 0 -338 42 -459 124 -42 28
-40 30 26 16z"/>
<path d="M1246 1528 c-30 -38 -36 -52 -27 -61 10 -9 18 -6 35 16 l23 29 53
-27 c28 -14 58 -24 66 -21 8 3 14 1 14 -4 0 -5 12 -13 28 -16 15 -4 33 -11 40
-17 8 -6 12 -6 12 2 0 6 5 11 11 11 5 0 8 -4 5 -8 -3 -5 10 -14 29 -20 31 -9
35 -8 35 7 0 14 -19 23 -77 40 -108 31 -195 71 -189 87 3 7 -1 17 -7 22 -8 7
-23 -5 -51 -40z"/>
<path d="M1178 1431 c-14 -26 -14 -32 -2 -42 10 -8 14 -8 14 0 0 20 3 26 18
37 8 6 12 16 8 22 -11 18 -20 14 -38 -17z"/>
<path d="M1583 1418 c5 -30 37 -36 37 -8 0 13 -7 20 -20 20 -11 0 -19 -6 -17
-12z"/>
<path d="M1630 1406 c0 -7 9 -16 20 -19 15 -4 20 0 20 14 0 12 -7 19 -20 19
-11 0 -20 -6 -20 -14z"/>
<path d="M1680 1395 c0 -8 9 -15 20 -15 11 0 20 7 20 15 0 8 -9 15 -20 15 -11
0 -20 -7 -20 -15z"/>
<path d="M1730 1391 c0 -16 17 -21 49 -15 33 7 33 24 0 24 -13 0 -18 -4 -13
-12 6 -10 4 -10 -7 0 -15 14 -29 16 -29 3z"/>
<path d="M2130 1358 c-21 -72 -85 -189 -143 -263 -112 -144 -290 -264 -458
-309 l-54 -15 58 0 c140 -2 317 67 425 164 106 96 172 235 188 394 3 39 4 71
2 71 -3 0 -11 -19 -18 -42z"/>
</g>
</svg>
